<?xml version="1.0" encoding="utf-8"?>
<!-- Generator: Adobe Illustrator 27.5.0, SVG Export Plug-In . SVG Version: 6.00 Build 0)  -->
<svg version="1.1" id="Layer_1" xmlns="http://www.w3.org/2000/svg" xmlns:xlink="http://www.w3.org/1999/xlink" x="0px" y="0px"
	 viewBox="0 0 305.966 339.295" style="enable-background:new 0 0 305.966 339.295;" xml:space="preserve">
<g>
	<path style="fill:#B07150;" d="M229.905,91.922c-0.092-4.611-0.466-9.337-2.02-13.691c-3.234-9.067-11.791-14.135-19.346-18.822
		c-8.505-5.276-17.391-9.95-26.749-13.341c-9.707-3.518-19.851-5.478-30.065-6.486c-10.166-1.003-20.431-1.153-30.632-0.79
		c-9.885,0.351-19.824,1.33-29.447,3.798C83.864,44.587,76,47.497,69.576,52.636c-2.885,2.308-5.367,5.078-7.402,8.173
		c-0.111-0.054-0.291-0.021-0.372,0.128c-0.65,1.183-1.237,2.397-1.798,3.624c-0.714,1.432-1.328,2.922-1.855,4.451
		c-0.005,0.014-0.01,0.028-0.015,0.042c-0.067,0.195-0.148,0.383-0.212,0.58c-0.013,0.038-0.021,0.079-0.033,0.117
		c-1.593,4.412-2.808,8.983-3.897,13.548c-2.003,8.396-4.27,16.739-6.047,25.19c-1.751,8.324-3.213,16.939-2.685,25.494
		c0.234,3.796,0.854,7.549,1.82,11.215c1.064,4.04,2.659,7.893,3.751,11.923c2.158,7.961,2.146,16.137,0.807,24.254
		c-1.418,8.596-4.191,16.893-5.259,25.564c-1.978,16.058,4.147,31.143,10.353,45.463c3.082,7.112,6.279,14.227,8.583,21.666
		c1.149,3.707,1.909,7.524,2.976,11.255c0.972,3.397,2.238,6.917,4.539,9.593c4.238,4.93,10.683,6.844,16.774,7.618
		c8.069,1.024,16.229,1.364,24.353,1.092c8.132-0.272,16.258-1.17,24.248-2.78c7.49-1.509,15.195-3.297,21.806-7.419
		c6.432-4.01,11.877-9.511,17.424-14.706c6.249-5.853,12.542-11.666,18.485-17.861c5.652-5.892,11.049-12.134,15.968-18.706
		c4.724-6.312,8.985-13.081,11.867-20.536c5.774-14.939,4.409-31.126,3.296-46.839c0.011-0.037,0.047-0.066,0.049-0.106
		c0.189-5.647-0.228-11.294,0.068-16.939c0.295-5.617,0.988-11.221,1.476-16.823c0.989-11.355,1.215-22.717,1.22-34.114
		C229.868,101.842,230.003,96.876,229.905,91.922z"/>
	<path style="fill:#FBC19F;" d="M228.403,101.43c-0.058,10.917,0.044,21.835-0.691,32.733c-0.548,8.132-1.603,16.221-1.973,24.351
		c-0.363,0.049-0.778,0.352-0.778,0.738c-0.014,16.502,2.97,33.193,0.491,49.626c-2.497,16.547-12.113,29.977-22.56,42.152
		c-5.422,6.318-11.183,12.26-17.173,17.987c-5.796,5.542-11.588,11.149-17.592,16.445c-2.809,2.478-5.734,4.833-8.895,6.804
		c-3.327,2.074-6.852,3.424-10.57,4.512c-7.654,2.24-15.505,3.737-23.409,4.601c-8.034,0.879-16.14,1.093-24.208,0.7
		c-3.955-0.193-7.908-0.524-11.839-1.022c-3.11-0.395-6.204-1.183-9.073-2.514c-2.961-1.374-5.729-3.399-7.577-6.217
		c-2.088-3.186-3.07-7.13-3.947-10.833c-0.856-3.612-1.676-7.206-2.816-10.737c-1.169-3.619-2.522-7.17-3.964-10.679
		c-5.757-14.011-13.144-28.098-14.26-43.582c-1.207-16.747,6.738-32.404,6.033-49.15c-0.154-3.657-0.624-7.261-1.485-10.813
		c-0.97-4-2.516-7.8-3.565-11.775c-2.016-7.642-2.296-15.465-1.395-23.311c1.033-8.998,3.139-17.82,5.305-26.58
		c1.9-7.682,3.347-15.51,5.616-23.087c0.303-1.011,0.626-2.014,0.965-3.011c1.977-4.658,4.592-8.984,8.152-12.563
		C72.62,50.75,79.7,47.515,86.82,45.261c9.421-2.983,19.265-4.311,29.07-4.892c9.752-0.577,19.584-0.556,29.333,0.074
		c10.09,0.652,20.175,2.09,29.912,4.987c9.526,2.833,18.6,7.079,27.25,12.087c4.12,2.386,8.197,4.898,12.125,7.616
		c3.678,2.545,7.264,5.439,9.767,9.291C229.354,82.236,228.451,92.466,228.403,101.43z"/>
	<path style="fill:#FBC19F;" d="M52.117,156.533c0.861,3.552,1.332,7.155,1.485,10.813c0.575,13.671-4.61,26.617-5.879,40.021
		c1.082-5.29,3.113-10.316,5.03-15.35c1.034-2.715,2.13-5.475,2.804-8.306c0.698-2.929,0.95-5.94,0.847-8.947
		c-0.203-5.866-1.746-11.578-3.396-17.177c-1.654-5.611-3.448-11.199-4.321-16.999c-0.958-6.362,0.134-12.6,0.979-18.907
		c0.863-6.448,1.644-12.85,1.846-19.36c0.04-1.268,0.049-2.535,0.057-3.803c-1.835,7.561-3.521,15.18-4.411,22.929
		c-0.901,7.846-0.621,15.669,1.395,23.311C49.601,148.733,51.147,152.533,52.117,156.533z"/>
	<path style="fill:#FBC19F;" d="M87.478,165.992c-0.299,1.769-0.431,3.556-0.473,5.349C87.32,169.595,87.488,167.814,87.478,165.992
		z"/>
	<path style="fill:#FBC19F;" d="M80.263,198.629c1.352-2.541,2.681-5.108,3.666-7.817c1.01-2.779,1.595-5.643,1.787-8.592
		c0.055-0.852,0.081-1.705,0.096-2.559c-3.103,8.154-7.676,15.905-8.481,24.632C78.26,202.381,79.264,200.507,80.263,198.629z"/>
	<path style="fill:#FBC19F;" d="M125.811,184.667c0.753,0.878,1.595,1.675,2.564,2.319c5.155,3.431,11.427,1.389,16.559-1.273
		C138.538,185.728,132.117,185.715,125.811,184.667z"/>
	<path style="fill:#FBC19F;" d="M70.565,182.674c-2.445-0.995-5.172-1.36-7.793-1.729C64.499,182.998,67.866,183.324,70.565,182.674
		z"/>
	<path style="opacity:0.72;fill:#FBC19F;" d="M224.278,74.424c-2.503-3.852-6.089-6.746-9.767-9.291
		c-3.928-2.718-8.005-5.23-12.126-7.616c-8.65-5.008-17.724-9.254-27.25-12.087c-9.738-2.896-19.822-4.335-29.912-4.987
		c-9.749-0.63-19.581-0.652-29.333-0.074c-9.805,0.581-19.649,1.909-29.07,4.891C79.7,47.515,72.62,50.75,67.195,56.205
		c-3.559,3.579-6.174,7.905-8.152,12.563c-0.339,0.997-0.662,2-0.965,3.011c-2.269,7.577-3.716,15.405-5.616,23.087
		c-1.587,6.418-3.138,12.87-4.262,19.4c0.042-0.087,0.082-0.175,0.125-0.261c2.459-4.986,5.497-9.585,8.723-14.098
		c1.529-2.138,3.367-4.508,6.058-5.157c2.611-0.63,5.425,0.22,7.882,1.075c2.705,0.941,5.342,2.185,8.146,2.814
		c3.4,0.763,7.039,0.821,10.505,0.628c7.307-0.406,14.506-2.31,21.451-4.524c6.888-2.196,13.61-4.871,20.443-7.227
		c3.265-1.125,6.553-2.122,9.882-3.033c2.973-0.813,5.913-1.754,8.934-2.38c2.887-0.598,5.891-0.94,8.816-0.402
		c2.393,0.441,4.641,1.573,6.5,3.131c3.585,3.004,5.579,7.52,6.784,11.939c1.225,4.49,1.717,9.157,1.978,13.793
		c0.019,0.332-0.285,0.574-0.589,0.589c-4.311,0.219-8.485-1.126-12.771-1.288c-4.314-0.162-8.695,0.5-12.876,1.523
		c-6.318,1.546-12.376,4.14-18.191,7.022c-5.616,2.784-11.126,6.008-15.861,10.145c-2.16,1.887-4.323,4.014-5.854,6.459
		c-1.413,2.256-1.394,4.861-0.352,7.26c1.104,2.541,2.993,4.699,4.945,6.626c1.922,1.897,4.015,3.605,6.112,5.302
		c0.212,0.172,0.194,0.496,0.092,0.714c-1.397,2.988-1.884,6.34-2.143,9.599c-0.252,3.173-0.282,6.363-0.398,9.543
		c-0.067,1.829-0.31,3.788,0.023,5.603c0.235,1.283,0.937,2.091,2.11,2.641c0.824,0.386,1.722,0.624,2.602,0.841
		c1.467,0.362,2.951,0.681,4.435,0.961c3.414,0.643,6.879,0.986,10.352,1.055c13.39,0.264,26.323-3.646,39.182-6.865
		c0.332-0.083,0.611,0.108,0.725,0.412c0.322,0.863,0.517,1.755,0.625,2.669c0.52,4.377-0.985,8.897-2.826,12.804
		c-1.974,4.191-4.658,8.199-8.006,11.419c-1.48,1.424-3.143,2.706-5.019,3.564c-2.839,1.299-5.915,1.339-8.93,0.711
		c-3.201-0.666-6.301-1.867-9.404-2.878c-3.215-1.047-6.436-2.099-9.732-2.864c-3.318-0.77-6.722-1.24-10.133-1.045
		c-3.389,0.194-6.73,0.98-9.992,1.885c-3.223,0.894-6.399,1.944-9.616,2.859c-2.313,0.657-4.652,1.19-7.005,1.682
		c-3.847,0.805-7.79,1.46-11.73,1.448c-3.052-0.009-7.43-0.355-9.046-3.436c-0.832-1.587-0.494-3.586-0.098-5.248
		c0.523-2.193,1.375-4.303,2.266-6.368c0.695-1.612,1.446-3.199,2.146-4.809c-0.438,0.791-0.876,1.583-1.327,2.366
		c-2.047,3.555-4.302,7.046-7.181,9.992c-1.427,1.46-3.013,2.813-4.758,3.88c-2.09,1.277-4.328,2.291-6.553,3.305
		c-2.191,0.999-4.375,1.993-6.424,3.267c-1.922,1.195-3.762,2.52-5.527,3.937c1.433,14.953,8.54,28.629,14.129,42.231
		c1.442,3.509,2.795,7.06,3.964,10.679c1.141,3.53,1.96,7.124,2.816,10.737c0.877,3.703,1.859,7.647,3.947,10.833
		c1.848,2.818,4.616,4.844,7.577,6.217c2.869,1.331,5.963,2.119,9.073,2.514c3.93,0.498,7.884,0.83,11.839,1.022
		c8.068,0.393,16.174,0.178,24.208-0.7c7.904-0.864,15.755-2.361,23.409-4.601c3.718-1.088,7.243-2.437,10.57-4.512
		c3.161-1.971,6.087-4.326,8.895-6.804c6.004-5.297,11.796-10.904,17.592-16.445c5.991-5.728,11.752-11.669,17.173-17.987
		c10.447-12.175,20.063-25.605,22.56-42.152c2.479-16.434-0.504-33.124-0.491-49.626c0-0.385,0.414-0.689,0.778-0.738
		c0.37-8.13,1.424-16.219,1.973-24.351c0.735-10.898,0.633-21.816,0.691-32.733C228.451,92.466,229.354,82.236,224.278,74.424z"/>
	<path style="opacity:0.72;fill:#FBC19F;" d="M184.388,135.774c-1.091-2.975-2.815-5.829-4.87-8.2
		c-1.019-1.175-2.157-2.026-3.634-2.543c-1.487-0.52-3.061-0.739-4.628-0.841c-2.841-0.185-5.706-0.04-8.55,0.005
		c-2.922,0.046-5.844,0.187-8.755,0.448c-5.8,0.519-11.57,1.522-17.146,3.216c-5.524,1.679-10.838,4.06-15.65,7.265
		c-3.144,2.094-6.039,4.536-8.641,7.262c3.429-0.913,6.908-1.648,10.402-2.254c9.998-1.734,20.122-2.727,30.169-4.131
		C163.44,134.554,174.131,133.029,184.388,135.774z"/>
	<path style="opacity:0.72;fill:#FBC19F;" d="M95.818,94.341c7.853,0.07,15.664-2.123,23.05-4.606
		c7.84-2.636,15.451-5.893,23.198-8.783c6.231-2.324,12.762-4.545,19.506-4.274c6.591,0.265,12.68,3.128,17.782,7.199
		c8.71,6.949,13.827,17.427,16.979,27.896c3.443,11.435,4.824,23.454,5.324,35.352c0.545,12.944,0.52,26.051-3.921,38.392
		c-2.758,7.664-6.553,15.024-10.32,22.232c-1.574,3.013-3.139,6.028-4.713,9.04c-1.254,2.401-2.702,4.928-5.068,6.387
		c-3.267,2.014-7.308,2.015-10.824,3.361c-1.08,0.413-2.273,1.064-1.733,2.384c0.412,1.006,1.288,1.845,2.061,2.577
		c1.25,1.183,2.638,2.194,4.053,3.169c9.968,6.873,21.387,11.24,32.887,14.962c9.979-11.806,18.972-24.835,21.374-40.753
		c2.479-16.434-0.504-33.124-0.491-49.626c0-0.385,0.414-0.689,0.778-0.738c0.37-8.13,1.424-16.219,1.973-24.351
		c0.735-10.898,0.633-21.816,0.691-32.733c0.048-8.964,0.951-19.195-4.125-27.006c-2.503-3.852-6.089-6.746-9.767-9.291
		c-3.928-2.718-8.005-5.23-12.126-7.616c-8.65-5.008-17.724-9.254-27.25-12.087c-9.738-2.896-19.822-4.335-29.912-4.987
		c-9.749-0.63-19.581-0.652-29.333-0.074c-9.805,0.581-19.649,1.909-29.07,4.891C79.7,47.515,72.62,50.75,67.195,56.205
		c-3.559,3.579-6.174,7.905-8.152,12.563c-0.339,0.997-0.662,2-0.965,3.011c-0.892,2.98-1.656,5.999-2.371,9.032
		C68.366,86.963,81.369,94.212,95.818,94.341z"/>
	<path style="opacity:0.72;fill:#FBC19F;" d="M86.402,162.305c-1.093-4.114-3.003-8.127-5.793-11.366
		c-1.246-1.447-2.675-2.749-4.32-3.728c-2.289-1.362-5.004-2.093-7.647-2.298c-4.763-0.368-9.194,1.129-13.042,3.868
		c-1.634,1.163-3.157,2.497-4.57,3.944c0.395,1.258,0.774,2.521,1.086,3.807c0.861,3.552,1.332,7.155,1.485,10.813
		c0.134,3.178-0.046,6.317-0.414,9.432c2.202,0.949,4.481,1.734,6.764,2.437c3.718,1.146,7.539,2.068,11.408,2.523
		c3.286,0.387,6.841,0.561,10.024-0.51c1.219-0.411,2.38-1.06,3.227-2.044c1.08-1.255,1.713-2.992,2.132-4.568
		C87.812,170.603,87.459,166.279,86.402,162.305z"/>
	<path style="fill:#FBC19F;" d="M73.207,141.285c3.892,0.858,7.659,2.225,11.2,4.051c-1.437-3.489-4.125-6.364-7.045-8.7
		c-3.084-2.467-6.584-4.441-10.203-6.006c-3.433-1.484-7.153-2.656-10.89-3.003c-1.936-0.18-3.926-0.109-5.773,0.552
		c-1.489,0.533-2.748,1.528-3.806,2.694c0.066,3.767,0.454,7.514,1.237,11.223c3.906-1.361,8.045-2.065,12.176-2.16
		C64.459,139.836,68.954,140.347,73.207,141.285z"/>
	<path style="fill:#4F3F35;" d="M301.213,86.228c0.448-0.556-0.105-1.074-0.678-0.665c-4.174,2.976-10.358-0.916-13.595-3.723
		c-4.032-3.495-6.75-8.213-9.549-12.683c-5.099-8.145-11.705-16.134-20.645-20.195c-2.127-0.966-4.271-1.568-6.441-1.892
		c1.923-0.972,3.694-2.225,5.192-3.857c1.834-1.998,2.982-4.416,3.896-6.943c0.889-2.457,1.721-5.238,1.355-7.874
		c-0.089-0.64-1.029-0.3-1.286-0.024c-1.904,2.046-3.63,4.464-5.952,6.067c-2.725,1.882-6.347,2.319-9.572,2.404
		c-8.628,0.229-16.658-3.427-23.941-7.708c-7.868-4.625-15.346-9.966-23.47-14.154c-3.818-1.968-7.854-3.475-11.941-4.778
		c-4.069-1.297-8.207-2.571-12.38-3.488c-8.23-1.808-16.774-1.924-25.144-1.241c-7.955,0.649-15.927,1.947-23.671,3.897
		c-3.955-1.009-8.234-1.002-12.275-1.026c-3.95-0.024-7.886,0.105-11.818,0.495c-7.805,0.776-15.556,2.407-22.913,5.157
		c-13.67,5.109-27.162,15.656-28.888,31.103c-0.217,1.944-0.183,3.854,0.051,5.715c-1.537-0.889-2.966-1.991-4.17-3.078
		c-2.681-2.422-4.766-5.584-6.017-8.967c-2.541-6.87-0.95-14.534,3.309-20.378c2.419-3.32,5.903-5.822,8.82-8.683
		c0.126-0.124,0.282-0.45,0.122-0.613c-1.377-1.404-4.182-0.506-5.784-0.055c-2.311,0.65-4.673,1.452-6.855,2.451
		c-6.12,2.801-11.2,7.631-14.922,13.186c-3.994,5.959-5.957,13.088-5.355,20.251c0.155,1.849,0.469,3.698,0.898,5.526
		c-1.151-2.127-2.021-4.387-2.408-6.846c-0.796-5.062,0.736-9.874,0.86-14.906c0.006-0.257-0.245-0.416-0.488-0.344
		c-1.118,0.328-1.769,1.175-2.414,2.102c-1.041,1.496-2.136,2.956-3.122,4.49c-1.947,3.028-3.358,6.346-4.259,9.83
		c-1.76,6.806-1.558,14.106,0.752,20.759c1.964,5.657,5.181,11.067,9.531,15.208c4.26,4.055,9.597,6.42,15.381,7.281
		c-1.672,1.818-3.175,3.792-4.42,5.922c-2.135,3.653-3.697,7.73-3.954,11.981c-0.259,4.276,0.721,8.55,2.518,12.418
		c2.01,4.324,5.091,8.86,9.189,11.439c0.383,0.241,1.194-0.221,1.012-0.709c-0.504-1.358-1.505-2.375-2.296-3.562
		c-0.956-1.433-1.701-3.033-2.157-4.695c-0.796-2.9-0.648-6.049,0.014-8.961c0.664-2.924,1.846-5.708,3.424-8.25
		c-0.297,2.874-0.15,5.796,0.413,8.626c1.429,7.182,4.956,14.943,11.073,19.293c0.42,0.298,1.138-0.244,1.03-0.722
		c-1.777-7.845-0.694-15.827,2.174-23.28c1.433-3.724,3.285-7.275,5.435-10.634c1.712-2.675,3.571-5.325,5.882-7.522
		c1.161-1.104,2.541-2.232,4.126-2.64c1.77-0.455,3.322,0.446,4.453,1.767c0.117,0.136,0.289,0.131,0.456,0.079
		c3.332,3.672,8.09,6.353,12.692,7.545c6.844,1.774,13.964-0.585,20.281-3.171c3.583-1.467,7.081-3.132,10.667-4.592
		c3.858-1.571,7.79-2.974,11.712-4.376c7.809-2.79,15.669-5.435,23.503-8.153c6.995-2.427,14.81-5.197,22.214-2.989
		c6.903,2.058,12.751,7.291,17.432,12.584c9.387,10.615,14.94,23.939,19.337,37.244c4.863,14.716,6.231,30.504,12.428,44.785
		c0.027,0.063,0.06,0.121,0.087,0.184c0.489,2.939,0.794,5.905,1.083,8.758c0.396,3.901,0.913,7.807,1.106,11.724
		c0.223,4.524,0.076,9.065-0.375,13.571c-1.715,17.137-8.036,33.282-18.493,46.973c-3.069,4.019-6.43,7.809-9.821,11.556
		c-3.626,4.007-7.245,8.041-10.985,11.942c-0.43,0.448-0.027,0.919,0.509,0.726c6.925-2.488,13.504-5.977,19.916-9.558
		c6.353-3.548,12.583-7.322,18.808-11.088c5.944-3.597,11.798-7.396,16.874-12.175c3.829-3.604,7.489-7.534,10.327-11.986
		c0.172,0.666,0.351,1.331,0.572,1.985c0.746,2.207,1.685,4.411,2.639,6.537c0.722,1.61,1.623,4.092,3.315,4.946
		c0.405,0.204,1.207-0.119,1.161-0.659c-0.613-7.195,0.207-14.187,3.744-20.585c3.815-6.902,8.699-13.167,12.55-20.055
		c3.654-6.536,6.554-13.524,8.55-20.743c2.083-7.534,3.549-15.547,3.659-23.375c0.056-4.032-0.376-8.034-1.215-11.975
		c3.43,4.376,8.652,7.859,11.816,12.125c0.479,0.645,1.645-0.156,1.492-0.84c-0.526-2.354-1.551-4.534-2.259-6.83
		c-0.75-2.429-1.062-5.003-1.413-7.514c-0.567-4.052-1.135-8.102-2.108-12.082c-0.294-1.203-0.653-2.444-1.053-3.684
		c2.845,1.629,5.469,3.635,7.844,5.894c0.316,0.301,0.975-0.083,1.129-0.378c1.478-2.826,0.881-6.296,0.479-9.32
		c-0.531-3.998-1.218-7.882-2.611-11.686c-1.774-4.842-4.518-9.524-8.596-12.68C293.784,95.019,298.302,89.844,301.213,86.228z"/>
	<path style="fill:#4F3F35;" d="M272.698,145.91c-1.909-4.008-4.575-7.646-7.693-10.797c-6.194-6.26-14.133-10.451-22.499-13.016
		c-4.746-1.455-9.612-2.219-14.529-2.811c-0.104-0.013-0.242,0.194-0.104,0.217c16.619,2.749,34.222,9.935,42.657,25.467
		c1.17,2.154,2.412,4.704,3.089,7.289c-2.567-4.202-6.356-7.601-10.527-10.226c-5.405-3.401-11.531-5.682-17.896-6.324
		c-0.343-0.035-0.816,0.642-0.349,0.727c5.98,1.089,11.88,3.395,17.022,6.627c5.226,3.286,10.005,7.83,12.254,13.693
		c0.284,0.741,1.394,0.15,1.434-0.465C275.788,152.74,274.194,149.052,272.698,145.91z"/>
	<path style="fill:#4F3F35;" d="M80.853,137.176c-1.726-2.219-4.006-4.056-6.232-5.749c-2.349-1.786-4.853-3.372-7.506-4.669
		c-2.299-1.124-4.705-1.952-7.101-2.839c-3.377-1.25-8.798-3.567-11.951-0.688c-2.515,2.297-4.014,6.549-4.049,9.912
		c-0.022,2.016-0.01,8.197,2.942,8.421c0.179,0.239,0.803,0.063,0.94-0.302c0.483-1.295,0.968-2.699,1.793-3.821
		c1.077-1.466,2.813-2.053,4.577-2.137c1.765-0.083,3.513,0.281,5.23,0.64c1.775,0.37,3.55,0.737,5.309,1.178
		c3.442,0.862,6.835,1.935,10.105,3.317c1.733,0.732,3.454,1.555,4.983,2.661c1.157,0.836,1.968,2.107,3.256,2.761
		c0.374,0.19,1.16-0.185,0.978-0.685C83.108,142.376,82.735,139.595,80.853,137.176z"/>
	<path style="fill:#4F3F35;" d="M174.094,119.766c-5.107-3.511-11.342-4.978-17.492-4.715c-6.571,0.281-12.949,2.309-18.96,4.869
		c-6.091,2.594-12.091,5.632-17.797,8.989c-3.193,1.878-6.441,3.923-9.185,6.431c-2.191,2.004-2.292,4.862-0.918,7.366
		c0.058,0.106,0.158,0.139,0.268,0.134c0.287,0.279,0.689,0.426,1.275,0.342c0.891-0.129,1.742-0.656,2.532-1.048
		c1.338-0.664,2.665-1.348,4.016-1.986c5.058-2.389,10.327-4.351,15.729-5.807c5.448-1.468,11.058-2.588,16.614-3.568
		c5.393-0.953,10.742-1.278,16.21-1.216c5.187,0.059,10.837,0.416,15.152,3.619c0.398,0.296,1.179-0.18,1.161-0.659
		C182.487,127.098,178.338,122.683,174.094,119.766z"/>
	<path style="fill:#B07150;" d="M177.176,162.662c-0.504-2.775-1.162-5.53-2.321-8.111c-2.089-4.654-5.677-8.761-10.33-10.965
		c-8.769-4.153-19.604-1.632-27.581,3.169c-2.9,1.745-5.572,3.942-7.891,6.458c-3.82,3.099-6.023,7.928-7.403,12.525
		c-0.034,0.112-0.063,0.227-0.096,0.34c-0.376,1.16-0.71,2.333-0.946,3.53c-0.43,2.18-1.168,4.842-0.653,7.112
		c-0.094,1.159,0.29,2.211,1.482,2.823c1.543,0.794,3.43,0.866,5.117,1.124c6.008,0.922,12.242,0.371,18.239-0.395
		c5.787-0.739,11.51-1.995,16.994-4.004c2.73-1,5.393-2.186,7.947-3.575c2.313-1.257,4.774-2.641,6.754-4.392
		C178.143,166.839,177.526,164.595,177.176,162.662z"/>
	<path style="fill:#FFFFFF;" d="M175.641,167.851c-1.006,0.762-2.097,1.436-3.172,2.095c-2.314,1.419-4.717,2.683-7.206,3.767
		c-4.825,2.102-9.919,3.544-15.086,4.514c-6.01,1.129-12.249,1.809-18.368,1.626c-2.464-0.074-4.935-0.369-7.361-0.811
		c-0.845-0.154-1.702-0.401-2.352-0.819c0.096-0.137,0.145-0.285,0.02-0.418c-0.377-0.401-0.317-1.41-0.357-1.922
		c-0.08-1.026-0.094-2.037-0.031-3.066c0.163-2.623,0.768-5.135,1.521-7.646c0.184-0.612,0.381-1.218,0.587-1.819
		c0.125-0.295,0.238-0.593,0.372-0.886c2.228-4.887,5.667-9.161,9.895-12.466c7.05-5.51,17.03-8.857,25.931-6.654
		c9.784,2.421,15.195,12.033,16.415,21.488C176.606,166.038,176.671,167.071,175.641,167.851z"/>
	<path style="fill:#B07150;" d="M86.578,172.94c-0.063-2.435-0.438-4.891-1.05-7.247c-1.24-4.773-3.961-8.848-7.912-11.811
		c-3.625-2.719-8.674-4.699-13.266-4.248c-4.538,0.445-7.876,4.208-9.44,8.266c-0.973,2.524-1.485,5.309-1.797,7.988
		c-0.227,1.945-0.355,4.027,0.084,5.964c0.094,1.528,0.595,3.056,1.507,4.126c1.739,2.04,4.316,3.162,6.841,3.881
		c3.029,0.861,6.205,1.339,9.314,1.803c3.779,0.564,7.596,0.863,11.401,0.391c1.341-0.167,2.708-0.227,3.532-1.448
		c0.784-1.164,0.635-2.564,0.605-3.902C86.578,175.442,86.609,174.149,86.578,172.94z"/>
	<path style="fill:#FFFFFF;" d="M84.058,180.587c-0.855,0.3-2.1,0.308-2.986,0.379c-0.964,0.078-1.931,0.106-2.898,0.097
		c-4.016-0.037-8-0.722-11.943-1.427c-2.941-0.526-6.053-1.163-8.615-2.779c-1.421-0.897-2.575-2.259-3.244-3.817
		c-0.545-4.391,0.116-8.725,1.233-12.982c1.065-4.06,3.653-8.558,8.211-9.192c4.345-0.605,9.251,1.364,12.69,3.902
		c3.56,2.628,6.254,6.292,7.746,10.449c0.867,2.414,1.385,4.926,1.531,7.487c0.067,1.187,0.001,2.323-0.132,3.45
		c-0.04,0.043-0.09,0.084-0.107,0.131C85.11,177.475,85.405,180.115,84.058,180.587z"/>
	<path style="fill:#B07150;" d="M110.739,206.977c-4.529,3.157-10.175,4.457-15.526,5.415c-5.372,0.962-11.225,0.695-16.455-0.988
		c-2.142-0.689-3.92-1.723-3.76-4.188c0.207-3.205,1.25-6.315,2.473-9.263c1.158-2.789,2.504-5.507,3.899-8.185
		c1.385-2.658,3.013-5.184,4.288-7.899c2.824-6.009,3.315-12.812,2.405-19.306c-0.017-0.12-0.225-0.014-0.212,0.093
		c0.413,3.355-0.102,7.018-0.766,10.312c-0.696,3.455-1.785,6.753-3.439,9.867c-2.99,5.628-6.316,11.082-8.413,17.137
		c-0.913,2.636-1.97,5.908-1.62,8.738c0.233,1.891,1.92,2.965,3.54,3.638c2.126,0.883,4.482,1.26,6.749,1.577
		c3.392,0.474,6.807,0.548,10.191-0.018c5.918-0.99,12.621-2.234,17.25-6.338C111.842,207.127,111.219,206.642,110.739,206.977z"/>
	<path style="fill:#B07150;" d="M158.28,139.662c-7.266-3.6-15.931-1.699-22.629,2.236c-3.451,2.027-6.544,4.637-9.27,7.56
		c-2.663,2.855-5.038,5.896-6.459,9.564c-0.036,0.093,0.108,0.065,0.137,0.003c1.61-3.48,4.294-6.417,6.936-9.148
		c2.561-2.647,5.44-5.016,8.593-6.926c3.229-1.956,6.788-3.351,10.527-3.924c4.079-0.624,7.932-0.104,11.877,1.003
		C158.163,140.077,158.501,139.771,158.28,139.662z"/>
	<path style="fill:#B07150;" d="M82.574,153.598c-3.59-5.337-10.232-9.622-16.836-9.296c-6.172,0.304-11.507,4.119-12.565,10.37
		c-0.064,0.379,0.577,0.202,0.648-0.065c1.613-6.066,6.784-9.357,12.922-9.359c6.4-0.003,11.71,3.705,15.587,8.521
		C82.42,153.882,82.656,153.719,82.574,153.598z"/>
	<path style="fill:#4F3F35;" d="M243.222,206.982c-3.596-5.737-8.724-10.52-11.359-16.848c-2.722-6.536-2.136-13.457-2.395-20.353
		c-0.107-2.844-0.667-5.632-2.751-7.713c-2.465-2.461-6.009-3.485-8.43-6.024c-0.304-0.318-0.815-0.113-1.021,0.224
		c-1.102,1.794-1.497,3.925-1.964,5.949c-0.56,2.425-1.364,4.781-2.149,7.141c-1.763,5.301-3.68,10.553-5.777,15.731
		c-4.093,10.105-8.619,20.309-15.57,28.81c-1.643,2.009-3.404,3.931-5.326,5.677c-1.429,1.299-3.27,2.932-5.274,3.357
		c-2.806,0.114-5.563,0.864-8.392,0.769c-3.36-0.113-6.674-1.152-9.789-2.351c-5.787-2.228-11.307-5.102-16.963-7.632
		c-5.546-2.481-11.264-4.678-17.268-5.741c-6.279-1.111-12.656-0.88-18.907,0.303c-3.573,0.676-6.999,1.791-10.511,2.699
		c-2.909,0.752-6.037,1.329-8.544,3.083c-1.924-0.732-3.768-1.184-5.87-1.336c-2.44-0.176-4.905-0.189-7.349-0.097
		c-4.771,0.18-9.662,0.888-14.148,2.575c-4.332,1.629-8.397,4.346-12.184,6.972c-3.417,2.371-5.819,5.744-7.977,9.237
		c-1.194,1.933-2.323,3.919-3.706,5.726c-0.763,0.997-1.611,1.955-2.578,2.76c-0.783,0.652-2.191,1.839-3.258,1.866
		c-0.368-0.009-0.965,0.711-0.403,0.839c0.145,0.033,0.301,0.034,0.462,0.022c0.393,0.063,0.961,0.353,1.272,0.415
		c0.423,0.084,0.859,0.129,1.29,0.137c0.995,0.017,1.989-0.168,2.937-0.46c0.636-0.196,1.269-0.45,1.896-0.73
		c-0.432,0.784-0.917,1.543-1.44,2.31c-2.326,3.415-4.477,6.687-5.646,10.701c-1.058,3.633-1.366,7.411-0.951,11.17
		c0.257,2.321,0.708,5.65,3.082,6.786c0.274,0.131,0.645,0.064,0.841-0.187c1.066-1.36,0.684-3.426,0.562-5.019
		c-0.066-0.857-0.115-1.682-0.01-2.536c0.041-0.335,0.085-0.724,0.141-1.122c-0.249,5.272,0.831,10.544,3.442,15.188
		c2.268,4.034,5.545,7.303,9.451,9.633c2.982,5.327,7.906,9.103,12.33,13.29c0.952,0.901,1.869,1.845,2.735,2.832
		c1.076,2.719,2.219,5.412,3.103,8.199c0.587,1.85,1.102,3.763,1.387,5.685c0.31,2.086,0.002,3.79-0.467,5.805
		c-0.606,2.609,4.441,1.445,5.63,1.051c1.614-0.535,2.976-1.437,4.076-2.738c0.221-0.262,0.449-0.552,0.67-0.856
		c0.36,1.334,0.673,2.681,0.889,4.037c0.401,2.52,0.555,5.015-0.545,7.387c-0.12,0.259,0.103,0.481,0.348,0.497
		c9.056,0.608,18.23-1.447,26.294-5.583c3.887-1.993,7.588-4.527,10.748-7.583c1.081-0.213,2.159-0.439,3.23-0.702
		c5.764-1.418,11.223-3.578,16.405-6.469c7.966-4.444,15.396-10.276,20.547-17.852c-0.745,1.732-1.589,3.43-2.593,5.021
		c-1.094,1.733-2.628,3.146-3.628,4.943c-0.212,0.382-0.095,0.807,0.389,0.835c2.151,0.123,4.238-0.733,6.155-1.618
		c2.205-1.019,4.355-2.157,6.447-3.391c4.437-2.618,8.671-5.657,12.51-9.096c4.516-4.047,8.426-8.875,11.424-14.193
		c-0.173,0.458-0.33,0.925-0.509,1.378c-2.505,6.342-5.992,12.295-11.049,16.936c-0.375,0.344-0.298,0.985,0.272,1.008
		c2.999,0.124,5.93-0.699,8.744-1.657c2.885-0.983,5.743-2.084,8.52-3.342c5.499-2.491,10.783-5.66,15.245-9.752
		c4.19-3.843,7.585-8.629,9.896-13.818c0.525-1.179,0.961-2.372,1.332-3.576c1.845-1.567,3.596-3.246,5.239-5.022
		c4.506-4.871,9.015-10.752,10.537-17.333c0.693-2.999,0.562-5.82,0.146-8.722c1.665,3.645,2.265,8.155,1.494,12.056
		c0.482-0.074,0.994-0.196,1.394-0.368c0.224-0.096,0.437-0.218,0.652-0.335c0.986-2.181,1.963-4.349,2.593-6.64
		C248.978,229.309,249.428,216.882,243.222,206.982z"/>
	<path style="fill:#967A6A;" d="M242.353,224.441c-0.059,0.832-0.153,1.662-0.258,2.49c0.567,3.043,0.857,6.144,0.54,9.174
		c-0.157,1.503-0.527,2.921-0.999,4.301c-0.24,0.393-0.467,0.794-0.721,1.178c-0.167,0.252-0.06,0.394,0.12,0.438
		c-0.222,0.547-0.452,1.091-0.694,1.632c0.188-4.3-0.975-8.919-3.673-11.897c-0.008-0.009-0.021-0.007-0.03-0.015
		c-0.066,0.73-0.163,1.455-0.288,2.177c1.842,8.075-2.454,15.942-7.368,22.14c-2.188,2.759-4.627,5.316-7.25,7.669
		c0.853-3.512,1.107-7.123,0.825-10.826c-0.348-4.565-1.23-9.166-2.871-13.462c0.166,1.893,0.248,3.79,0.248,5.691
		c0.834,3.994,1.428,8.021,1.345,12.12c-0.082,4.025-0.765,8.255-2.655,11.85c-0.335,0.637-0.729,1.23-1.135,1.815
		c-4.418,8.733-12.105,15.258-20.897,19.626c-2.813,1.398-5.716,2.578-8.659,3.67c-2.795,1.038-5.693,2.067-8.69,2.191
		c4.706-4.625,8.101-10.636,10.347-16.784c1.036-2.834,1.989-5.767,2.708-8.699c0.042-0.172,0.081-0.349,0.122-0.525
		c0.101-0.286,0.222-0.565,0.317-0.854c0.881-2.66,1.527-5.409,1.855-8.191c-0.651,2.984-1.577,5.896-2.968,8.716
		c-0.577,1.169-1.223,2.296-1.898,3.405c-0.936,2.218-2.037,4.383-3.331,6.477c-4.875,7.887-11.726,14.113-19.466,19.128
		c-2.369,1.535-4.824,2.935-7.362,4.171c-1.848,0.9-3.855,1.969-5.945,2.137c1.025-1.538,2.306-2.896,3.248-4.498
		c1.102-1.873,2.093-3.844,2.84-5.886c0.422-1.154,0.729-2.31,0.954-3.471c0.56-1.078,1.056-2.184,1.54-3.294
		c-1.076,1.302-2.202,2.562-3.377,3.779c-2.143,3.872-4.816,7.37-7.985,10.499c-7.448,7.354-17.14,12.913-27.183,15.797
		c-1.416,0.407-2.85,0.743-4.289,1.057c2.535-2.755,4.657-5.868,6.086-9.381c1.506-3.702,2.401-8.186,1.787-12.278
		c-0.541,2.413-1.113,4.832-1.792,7.212c-0.189,1.13-0.451,2.26-0.826,3.394c-0.753,2.282-1.852,4.42-3.165,6.422
		c-0.635,1.09-1.319,2.157-2.109,3.171c-0.538,0.691-1.118,1.314-1.719,1.906c-0.504,0.503-1.031,0.969-1.573,1.41
		c-0.488,0.392-0.985,0.768-1.499,1.115c-5.483,4.549-12.189,7.67-19.053,9.369c-4.489,1.111-9.147,1.671-13.773,1.427
		c1.772-3.876,0.818-8.277-0.354-12.219c-0.023-0.078-0.053-0.158-0.081-0.237c-1.342-2.73-2.858-5.388-4.065-8.174
		c0.386,2.466,1.376,4.885,2.225,7.322c0.048,0.138,0.078,0.284,0.125,0.422c-0.563,1.169-1.145,2.277-2.266,3.181
		c-1.363,1.099-3.515,1.735-5.261,1.617c-0.282-0.019-0.842,0.035-0.942-0.302c-0.065-0.219,0.294-0.968,0.348-1.185
		c0.219-0.875,0.358-1.764,0.369-2.667c0.025-1.978-0.43-3.922-0.932-5.823c-2.197-8.334-7.509-15.9-8.193-24.641
		c-0.016-0.206-0.34-0.095-0.332,0.07c0.19,3.882,0.808,7.424,2.089,11.109c0.006,0.017,0.013,0.034,0.019,0.051
		c-1.762-1.744-3.613-3.42-5.456-5.116c-1.3-1.197-2.554-2.452-3.719-3.782c-1.009-0.993-1.915-2.081-2.626-3.327
		c-0.147-0.258-0.273-0.526-0.407-0.791c-0.019-0.011-0.037-0.021-0.056-0.031c-0.021-0.035-0.047-0.067-0.067-0.102
		c-1.216-2.093-2.003-4.384-2.496-6.741c-0.739-2.311-1.328-4.672-1.672-7.061c-0.322,3.914-0.038,7.829,1.456,11.608
		c0.095,0.24,0.221,0.454,0.324,0.688c-3.058-2.247-5.674-5.064-7.562-8.404c-2.984-5.278-3.958-11.435-3.125-17.411
		c0.059-0.427-0.542-0.419-0.767-0.23c-1.424,1.194-1.711,3.4-1.816,5.159c-0.058,0.982,0.088,1.978,0.145,2.957
		c0.039,0.671,0.182,1.75-0.044,2.537c-1.683-1.478-1.914-4.339-2.086-6.405c-0.305-3.668,0.058-7.323,1.184-10.833
		c1.165-3.635,3.164-6.591,5.25-9.736c0.725-1.093,1.431-2.269,1.92-3.503c0.011-0.006,0.019-0.014,0.03-0.02
		c0.036-0.324,0.078-0.647,0.101-0.972c-0.349,0.106-0.696,0.217-1.051,0.303c-0.057,0.133-0.101,0.275-0.161,0.405
		c-0.707,0.389-1.425,0.757-2.194,1.03c-1.073,0.381-2.214,0.615-3.357,0.547c-0.383-0.023-0.783-0.087-1.165-0.186
		c0.992-0.487,1.998-1.307,2.568-1.782c1.42-1.181,2.603-2.606,3.669-4.108c2.441-3.438,4.323-7.267,7.188-10.398
		c1.568-1.714,3.382-2.98,5.324-4.229c2.024-1.302,4.035-2.634,6.159-3.771c4.482-2.399,9.481-3.509,14.516-3.975
		c2.712-0.251,5.428-0.258,8.149-0.235c2.598,0.022,5.528,0.036,8.046,0.835c0.05,0.064,0.13,0.086,0.238,0.064
		c0.077,0.026,0.163,0.036,0.239,0.064c0.174,0.064,0.398-0.149,0.37-0.305c2.406-1.164,4.999-1.761,7.588-2.395
		c3.04-0.744,6.011-1.719,9.076-2.372c6.565-1.4,13.319-1.806,19.951-0.623c11.985,2.139,22.396,8.694,33.559,13.149
		c3.27,1.305,6.725,2.425,10.264,2.629c3.433,0.198,6.9-0.641,10.236-1.343c0.068-0.014,0.135-0.061,0.192-0.119
		c2.767-0.924,5.303-3.655,7.102-5.499c3.73-3.825,6.879-8.203,9.577-12.806c5.825-9.939,10.1-20.96,13.895-31.806
		c1.067-3.048,2.18-6.116,3.04-9.23c0.607-2.197,0.901-4.576,1.885-6.655c1.975,1.705,4.371,2.807,6.507,4.301
		c2.372,1.659,3.559,3.965,3.868,6.808c0.333,3.065,0.067,6.202,0.152,9.28c0.092,3.324,0.386,6.669,1.275,9.883
		c1.75,6.323,6.01,11.207,9.854,16.351c3.888,5.204,6.619,10.913,7.053,17.478c0.338,5.113-0.705,10.113-2.742,14.725
		c0.012-0.11,0.036-0.216,0.046-0.327C244.273,231.893,243.499,228.134,242.353,224.441z"/>
	<path style="fill:#967A6A;" d="M72.812,278.911c-0.601,3.187-0.833,6.427-0.737,9.66c0.14-0.932,0.3-1.861,0.493-2.785
		c1.747-8.35,5.465-16.258,7.088-24.606c-0.533,0.924-1.054,1.856-1.545,2.803C75.67,268.688,73.796,273.693,72.812,278.911z"/>
	<path style="fill:#967A6A;" d="M118.253,291.375c-0.406,4.698-1.238,9.365-2.483,13.916c0.845-1.627,1.562-3.322,2.142-5.059
		c2.036-6.093,2.751-12.798,1.708-19.155c-0.434-2.644-1.227-5.251-2.391-7.655C118.57,279.285,118.769,285.4,118.253,291.375z"/>
	<path style="fill:#967A6A;" d="M142.585,289.169c-0.441,2.847-1.144,5.854-2.236,8.689c0.276-0.423,0.568-0.836,0.827-1.27
		c3.179-5.32,5.048-11.575,4.228-17.799c-0.449-3.408-1.703-6.533-3.51-9.324C143.494,275.857,143.587,282.699,142.585,289.169z"/>
	<path style="fill:#967A6A;" d="M52.577,272.866c-0.225,1.973-0.208,3.972,0.035,5.942c0.207,1.679,0.599,3.341,0.916,5.002
		c0.265,1.391,0.575,2.788,1.084,4.112c0.37,0.962,0.917,2.078,1.804,2.693c0.408-1.845,0.043-3.776-0.29-5.616
		c-0.39-2.152-0.601-4.275-0.552-6.466c0.153-6.808,2.473-13.16,4.659-19.522c0.638-1.857,1.327-3.727,2.197-5.499
		c-0.348,0.354-0.687,0.71-1.007,1.066C56.918,259.594,53.347,266.108,52.577,272.866z"/>
	<path style="fill:#967A6A;" d="M83.478,284.897c-0.386-1.262-0.805-2.515-1.217-3.769c-0.313,4.91-0.004,9.883,0.668,14.73
		c0.67,4.838,1.718,9.656,3.241,14.308c-0.01-2.429-0.034-4.857-0.126-7.285C85.817,296.832,85.258,290.709,83.478,284.897z"/>
	<path style="fill:#967A6A;" d="M37.455,241.151c1.719-0.506,3.156-1.687,4.375-2.962c2.484-2.597,4.278-5.762,6.281-8.722
		c0.834-1.233,1.702-2.471,2.749-3.535c1.848-1.877,4.042-3.421,6.366-4.65c4.625-2.447,9.92-3.966,15.078-4.743
		c5.761-0.867,11.658-1.376,17.447-0.487c5.373-3.769,12.371-4.661,18.768-4.882c6.412-0.222,12.978,0.047,19.242,1.489
		c6.994,1.61,13.738,4.265,20.462,6.735c5.415,1.988,11.008,3.768,16.759,4.443c0.776,0.091,1.562,0.159,2.35,0.204
		c-1.921-0.486-3.803-1.149-5.626-1.877c-11.163-4.456-21.574-11.011-33.559-13.149c-6.632-1.184-13.386-0.777-19.951,0.623
		c-3.065,0.654-6.036,1.628-9.076,2.372c-2.589,0.633-5.181,1.23-7.588,2.395c0.028,0.157-0.196,0.369-0.37,0.305
		c-0.076-0.028-0.162-0.038-0.239-0.064c-0.108,0.022-0.188,0-0.238-0.064c-2.518-0.799-5.448-0.813-8.046-0.835
		c-2.72-0.023-5.437-0.016-8.149,0.235c-5.035,0.466-10.034,1.576-14.516,3.975c-2.123,1.137-4.135,2.469-6.159,3.771
		c-1.942,1.249-3.756,2.515-5.324,4.229c-2.865,3.131-4.747,6.96-7.188,10.398c-1.066,1.502-2.248,2.927-3.669,4.108
		c-0.282,0.234-0.671,0.554-1.112,0.875C36.833,241.298,37.144,241.243,37.455,241.151z"/>
	<path style="opacity:0.46;fill:#967A6A;" d="M243.864,236.163c2.037-4.612,3.08-9.612,2.742-14.725
		c-0.433-6.565-3.165-12.274-7.052-17.478c-3.843-5.144-8.104-10.029-9.854-16.351c-0.89-3.214-1.184-6.56-1.275-9.883
		c-0.085-3.078,0.182-6.214-0.152-9.28c-0.309-2.842-1.496-5.149-3.868-6.808c-2.137-1.494-4.532-2.596-6.507-4.301
		c-0.984,2.079-1.278,4.458-1.885,6.655c-0.86,3.114-1.973,6.182-3.04,9.23c-3.796,10.846-8.07,21.867-13.895,31.805
		c-2.698,4.603-5.847,8.981-9.577,12.806c-1.799,1.844-4.335,4.576-7.102,5.499c-0.057,0.058-0.124,0.105-0.192,0.119
		c-3.255,0.684-6.634,1.493-9.986,1.348c1.202,0.409,2.417,0.779,3.636,1.118c3.033,0.843,6.159,1.3,9.203,2.107
		c3.028,0.803,6.154,1.86,8.624,3.85c2.378,1.915,3.547,4.686,3.162,7.727c-0.065,0.512-0.59,0.771-1.006,0.417
		c-3.181-2.708-6.795-4.82-10.681-6.317c1.451,2.107,3.266,3.951,4.816,5.985c1.964,2.578,3.312,5.479,3.221,8.779
		c-0.009,0.339-0.265,0.565-0.589,0.589c-2.792,0.209-5.598-0.094-8.289-0.864c-9.047-2.587-16.036-9.491-22.801-15.756
		c1.486,5.679,5.171,10.472,8.137,15.472c0.271,0.456-0.176,0.98-0.665,0.866c-2.402-0.561-4.645-1.628-6.643-3.069
		c-4.75-3.425-8.086-8.538-12.252-12.619c0.332,1.073,0.471,2.205,0.35,3.389c-0.051,0.497-0.61,0.792-1.006,0.417
		c-3.908-3.701-8.212-6.978-13.074-9.326c-7.791-3.761-16.32-4.623-24.793-5.629c-3.632-0.432-7.351-0.965-10.765-2.336
		c-2.606-1.047-5.142-2.711-6.188-5.357c-1.814,2.285-4.002,4.32-6.326,6.05c-1.558,1.16-3.473,2.428-5.484,2.997
		c-0.857,0.502-1.732,0.973-2.61,1.406c-2.095,1.032-4.208,2.035-6.344,2.98c-4.77,2.111-9.832,4.049-13.941,7.344
		c-1.92,1.54-3.582,3.391-4.683,5.606c-1.249,2.513-1.63,5.319-1.499,8.099c0.027,0.564-0.85,0.831-1.098,0.298
		c-1.944-4.18-2.448-9.47-0.929-13.952c-0.571,0.775-1.054,1.619-1.448,2.507c-1.622,3.663-2.004,7.806-2.444,11.744
		c-0.422,3.779-0.717,7.742-2.184,11.292c-0.196,0.476-1.011,0.637-1.136,0c-0.738-3.757-0.986-7.639-0.512-11.444
		c-1.702,1.535-3.221,3.264-4.512,5.162c-2.321,3.413-4.001,7.349-4.909,11.451c0.176,1.996,0.503,4.484,2.036,5.831
		c0.225-0.787,0.082-1.866,0.044-2.537c-0.057-0.979-0.203-1.975-0.145-2.957c0.105-1.759,0.392-3.965,1.816-5.159
		c0.224-0.188,0.826-0.197,0.767,0.23c-0.833,5.975,0.141,12.133,3.125,17.411c1.888,3.34,4.504,6.157,7.562,8.404
		c-0.103-0.234-0.229-0.448-0.324-0.688c-1.494-3.779-1.778-7.694-1.456-11.608c0.343,2.389,0.933,4.75,1.672,7.061
		c0.493,2.357,1.279,4.647,2.496,6.741c0.021,0.035,0.047,0.067,0.067,0.102c0.018,0.011,0.037,0.021,0.056,0.031
		c0.133,0.265,0.259,0.534,0.407,0.791c0.712,1.246,1.617,2.334,2.626,3.327c1.166,1.329,2.419,2.585,3.719,3.781
		c1.843,1.696,3.694,3.372,5.456,5.117c-0.006-0.017-0.013-0.033-0.019-0.051c-1.28-3.685-1.898-7.226-2.089-11.109
		c-0.008-0.165,0.316-0.276,0.332-0.07c0.684,8.741,5.996,16.307,8.193,24.641c0.501,1.901,0.956,3.844,0.932,5.823
		c-0.011,0.903-0.151,1.792-0.369,2.667c-0.054,0.216-0.413,0.966-0.348,1.185c0.1,0.338,0.66,0.283,0.942,0.302
		c1.746,0.118,3.898-0.517,5.261-1.617c1.121-0.904,1.702-2.011,2.266-3.181c-0.046-0.139-0.077-0.284-0.125-0.422
		c-0.848-2.437-1.839-4.856-2.225-7.322c1.207,2.785,2.722,5.443,4.065,8.173c0.028,0.079,0.057,0.159,0.081,0.237
		c1.172,3.942,2.126,8.343,0.354,12.219c4.626,0.244,9.284-0.315,13.773-1.427c6.865-1.699,13.57-4.821,19.053-9.369
		c0.514-0.348,1.011-0.723,1.499-1.115c0.542-0.441,1.069-0.907,1.573-1.41c0.601-0.592,1.182-1.216,1.719-1.906
		c0.79-1.014,1.474-2.081,2.109-3.171c1.312-2.002,2.411-4.14,3.165-6.422c0.374-1.134,0.636-2.264,0.826-3.394
		c0.679-2.381,1.251-4.8,1.792-7.212c0.614,4.092-0.281,8.576-1.787,12.278c-1.429,3.513-3.551,6.626-6.086,9.381
		c1.439-0.314,2.873-0.65,4.289-1.057c10.042-2.885,19.734-8.443,27.183-15.797c3.17-3.13,5.843-6.627,7.985-10.5
		c1.175-1.218,2.301-2.477,3.377-3.78c-0.483,1.111-0.98,2.216-1.54,3.294c-0.225,1.161-0.532,2.317-0.954,3.471
		c-0.747,2.042-1.738,4.013-2.84,5.887c-0.942,1.602-2.223,2.96-3.248,4.498c2.091-0.168,4.097-1.238,5.945-2.137
		c2.538-1.236,4.993-2.636,7.362-4.171c7.74-5.015,14.591-11.241,19.466-19.128c1.294-2.094,2.395-4.259,3.331-6.477
		c0.674-1.109,1.321-2.236,1.898-3.405c1.391-2.82,2.317-5.732,2.968-8.716c-0.328,2.782-0.974,5.531-1.855,8.191
		c-0.095,0.288-0.217,0.567-0.318,0.853c-0.041,0.175-0.08,0.353-0.122,0.525c-0.72,2.932-1.673,5.865-2.709,8.699
		c-2.246,6.148-5.641,12.159-10.347,16.784c2.996-0.123,5.895-1.153,8.69-2.191c2.943-1.092,5.846-2.273,8.659-3.67
		c8.792-4.368,16.478-10.893,20.897-19.626c0.405-0.584,0.8-1.178,1.135-1.815c1.89-3.596,2.573-7.826,2.655-11.85
		c0.083-4.099-0.511-8.126-1.345-12.12c0-1.901-0.081-3.798-0.248-5.691c1.641,4.296,2.523,8.897,2.871,13.462
		c0.282,3.703,0.028,7.314-0.825,10.826c2.624-2.353,5.063-4.91,7.25-7.669c4.915-6.199,9.21-14.066,7.368-22.14
		c0.125-0.722,0.222-1.447,0.288-2.177c0.009,0.007,0.022,0.006,0.03,0.014c2.698,2.978,3.861,7.596,3.673,11.897
		c0.242-0.541,0.472-1.085,0.694-1.632c-0.18-0.044-0.287-0.186-0.12-0.438c0.255-0.385,0.481-0.785,0.721-1.178
		c0.472-1.38,0.842-2.798,0.999-4.301c0.317-3.03,0.027-6.131-0.54-9.174c0.105-0.828,0.199-1.659,0.258-2.491
		c1.146,3.693,1.92,7.452,1.557,11.395C243.9,235.947,243.876,236.053,243.864,236.163z M106.357,282.51
		c-0.977,7.115-4.049,13.997-8.39,19.692c-0.304,0.399-1.173,0.358-1.098-0.298c0.42-3.653,0.762-7.328,0.659-11.009
		c-0.008-0.278-0.023-0.558-0.036-0.838c-2.04,8.301-6.883,15.817-10.212,23.614c-0.191,0.448-0.793,0.314-1.018,0
		c-1.846-2.578-3.613-5.214-5.218-7.95c-2.64-4.5-4.84-9.282-6.225-14.322c-1.097-3.992-1.649-8.103-1.729-12.232
		c-1.956,7.465-1.164,15.293-1.371,22.997c-0.017,0.61-0.771,0.768-1.098,0.297c-1.673-2.408-3.005-5.031-4.03-7.776
		c-3.377-9.043-3.543-19.878,0.945-28.577c-1.21,0.742-2.323,1.627-3.294,2.683c-4.975,5.41-5.945,13.56-5.557,20.599
		c0.027,0.491-0.681,0.805-1.006,0.417c-1.95-2.33-3.246-5.108-3.951-8.055c-1.352-5.651-0.746-11.745,1.069-17.222
		c0.161-0.485,0.342-0.967,0.524-1.448c-0.287-0.13-0.509-0.468-0.341-0.839c1.152-2.541,2.67-4.945,4.339-7.176
		c1.725-2.307,3.678-4.521,6.065-6.163c1.967-1.354,4.413-2.295,6.808-1.639c2.976,0.816,4.904,3.514,5.131,6.517
		c0.19,2.508-0.518,4.954-0.805,7.428c0.823-1.402,1.714-2.771,2.93-3.842c1.492-1.313,3.369-1.76,5.183-0.799
		c1.525,0.809,2.328,2.502,2.808,4.081c0.588,1.937,0.794,3.984,0.962,5.993c0.109,1.306,0.145,2.64,0.313,3.948
		c3.334-3.924,4.781-9.098,7.716-13.303c0.191-0.273,0.506-0.366,0.806-0.211c2.826,1.454,4.676,4.386,6.014,7.164
		C106.008,269.972,107.226,276.184,106.357,282.51z M124.322,295.685c-1.857,3.681-4.3,7.227-6.987,10.347
		c-2.425,2.815-5.735,6.055-9.71,6.107c-0.47,0.006-0.703-0.499-0.509-0.887c2.448-4.892,5.038-9.758,6.742-14.974
		c0.736-2.254,1.3-4.565,1.642-6.912c0.294-2.018,0.515-4.148,0.38-6.19c-0.163-2.457-0.666-4.913-1.084-7.335
		c-0.523-3.03-1.08-6.054-1.616-9.082c-0.186-1.053-0.374-2.105-0.534-3.162c-0.775-1.703-1.69-3.335-2.831-4.81
		c-0.324-0.418-0.048-1.188,0.573-0.985c5.094,1.667,9.798,4.801,13.159,8.994c3.071,3.83,4.731,8.358,4.749,13.276
		C128.317,285.474,126.741,290.888,124.322,295.685z M151.351,288.271c-1.819,4.185-4.866,7.953-7.991,11.233
		c-1.668,1.751-3.472,3.408-5.484,4.758c-1.634,1.097-3.489,2.031-5.486,2.142c-0.35,0.019-0.711-0.398-0.568-0.746
		c1.249-3.036,2.441-6.096,3.494-9.206c1.703-5.03,3.125-10.425,3.652-15.833c-0.074-0.091-0.128-0.202-0.128-0.351
		c-0.004-4.979-0.197-10.043-1.624-14.848c-0.706-2.377-1.734-4.631-3.116-6.692c-1.337-1.995-3.262-3.508-4.564-5.535
		c-0.234-0.365,0.069-0.911,0.509-0.887c5.831,0.329,11.584,2.408,16.081,6.175c4.014,3.361,6.653,8.019,7.441,13.197
		C154.409,277.217,153.582,283.139,151.351,288.271z"/>
	<path style="opacity:0.46;fill:#967A6A;" d="M204.367,273.968c-3.285,4.241-7.065,8.07-10.454,12.227
		c-1.638,2.009-3.295,4.021-5.173,5.814c-1.245,1.188-2.617,2.323-4.168,3.094c0.003,0.102-0.018,0.205-0.064,0.299
		c1.158-0.356,2.3-0.769,3.424-1.187c2.943-1.092,5.846-2.273,8.659-3.67c0.189-0.094,0.374-0.194,0.561-0.29
		c0.369-0.357,0.741-0.711,1.099-1.08c5.511-5.676,8.618-13.024,9.801-20.738C206.975,270.373,205.727,272.212,204.367,273.968z"/>
	<path style="opacity:0.46;fill:#967A6A;" d="M170.964,285.397c-1.209,2.696-2.592,5.321-4.154,7.829
		c-1.659,2.664-3.53,5.245-5.761,7.463c-1.196,1.189-2.522,2.294-3.986,3.145c1.254-0.529,2.497-1.084,3.715-1.694
		c7.536-3.779,14.229-9.686,16.431-18.115c1.008-3.858,1.437-7.929,1.092-11.908c-0.285-3.278-1.203-6.632-3.245-9.229
		c0.605,3.859,0.477,7.788-0.304,11.631C173.98,278.319,172.545,281.873,170.964,285.397z"/>
	<path style="opacity:0.46;fill:#967A6A;" d="M150.447,256.994c-3.515-2.032-7.374-3.338-11.25-4.529
		c1.335,1.056,2.575,2.228,3.646,3.567c0.067,0.083,0.123,0.174,0.188,0.258c1.079,0.656,2.121,1.377,3.094,2.192
		c4.014,3.361,6.653,8.019,7.441,13.197c0.843,5.538,0.016,11.46-2.215,16.592c-1.819,4.185-4.866,7.953-7.991,11.233
		c-0.471,0.494-0.955,0.977-1.449,1.451c0.056-0.014,0.113-0.026,0.169-0.04c1.956-0.497,3.868-1.063,5.661-1.996
		c2.51-1.307,4.897-2.88,6.966-4.818c2.132-1.998,3.673-4.289,4.968-6.891c2.693-5.41,3.007-11.854,1.213-17.59
		C159.178,264.145,155.374,259.843,150.447,256.994z"/>
	<path style="opacity:0.63;fill:#967A6A;" d="M149.413,236.943c1.007,0.85,1.975,1.747,2.851,2.746
		c-0.555-1.555-1.152-3.092-1.805-4.601c0.03,0.454,0.034,0.915-0.014,1.386c-0.051,0.497-0.61,0.792-1.006,0.417
		c-0.028-0.026-0.056-0.051-0.084-0.077C149.374,236.856,149.393,236.9,149.413,236.943z"/>
	<path style="opacity:0.63;fill:#967A6A;" d="M147.233,234.898c-3.312-2.878-6.902-5.418-10.869-7.333
		c-7.791-3.761-16.32-4.623-24.793-5.629c-3.632-0.432-7.351-0.965-10.765-2.336c-2.606-1.047-5.142-2.711-6.188-5.357
		c-1.814,2.285-4.002,4.32-6.326,6.05c-1.558,1.16-3.473,2.428-5.484,2.997c-0.857,0.502-1.732,0.973-2.61,1.406
		c-2.095,1.032-4.208,2.035-6.344,2.98c-4.77,2.111-9.832,4.049-13.941,7.344c-0.286,0.23-0.554,0.481-0.828,0.725
		c1.03-0.479,2.086-0.907,3.178-1.25c5.684-1.783,11.703-1.901,17.481-3.25c2.692-0.628,5.341-1.554,7.614-3.163
		c2.496-1.767,4.258-4.318,5.361-7.146c0.169-0.435,0.622-0.555,0.985-0.26c4.067,3.313,9.566,4.358,14.636,4.985
		c4.357,0.539,8.742,0.814,13.099,1.36c4.22,0.529,8.428,1.227,12.537,2.338c4.773,1.289,9.475,3.221,13.487,6.07
		C147.387,235.253,147.31,235.076,147.233,234.898z"/>
	<path style="opacity:0.63;fill:#967A6A;" d="M189.727,273.473c0.674-1.109,1.321-2.236,1.898-3.405
		c1.255-2.544,2.119-5.167,2.756-7.846c-1.061,1.898-2.13,3.791-3.229,5.667c-6.438,10.982-14.163,21.832-25.618,28.008
		c-0.434,0.234-1.027-0.156-0.866-0.665c1.739-5.486,2.494-11.278,1.357-16.893c-0.255,1.811-0.631,3.605-1.141,5.363
		c-1.308,4.505-3.306,8.841-5.807,12.885c-0.639,1.48-1.391,2.918-2.205,4.302c-0.942,1.602-2.223,2.96-3.248,4.498
		c2.091-0.168,4.097-1.238,5.945-2.137c2.538-1.236,4.993-2.636,7.362-4.171c7.74-5.015,14.591-11.241,19.466-19.128
		C187.69,277.855,188.79,275.691,189.727,273.473z"/>
	<path style="opacity:0.63;fill:#967A6A;" d="M181.188,252.491c-1.207,0.353-2.457,0.564-3.714,0.648
		c-4.208,0.28-8.558-0.613-12.38-2.37c-2.691-1.237-5.306-3.086-6.9-5.614c0.365,1.037,0.855,2.033,1.472,2.964
		C164.16,254.905,174.931,258.292,181.188,252.491z"/>
	<path style="fill:#FBC19F;" d="M92.184,230.381c-4.542,0.49-9.111,1.339-13.373,3.017c-2.139,0.843-4.164,1.894-6.185,2.983
		c-1.216,0.655-2.415,1.168-3.71,1.377c3.613,2.258,6.156,5.852,9.546,8.426c3.889,2.952,9.168,3.883,13.935,4.186
		c5.285,0.335,10.608-0.273,15.751-1.494c5.116-1.215,10.16-2.986,14.77-5.534c2.307-1.275,4.603-2.774,6.383-4.743
		c1.389-1.536,2.188-3.482,3.392-5.148c-4.218-0.766-8.444-1.489-12.69-2.079C110.814,230.094,101.438,229.382,92.184,230.381z"/>
	<path style="fill:#4F3F35;" d="M76.203,264.902c2.147-3.676,4.688-7.103,6.79-10.802c0.178-0.314-0.263-0.329-0.414-0.12
		c-4.065,5.614-8.642,11.223-10.929,17.862c-2.403,6.978-2.709,15.145,0.091,22.034c1.542,3.794,3.842,7.18,6.2,10.505
		c0.12,0.169,0.456-0.068,0.347-0.244c-2.36-3.829-4.696-7.78-6.009-12.111c-1.433-4.724-1.395-9.791-0.65-14.634
		C72.316,272.916,73.923,268.804,76.203,264.902z"/>
	<path style="fill:#4F3F35;" d="M154.179,246.3c-0.15-0.961-0.264-1.926-0.387-2.894c-0.212-1.655-0.44-3.216-0.987-4.796
		c-0.021-0.061-0.111-0.01-0.114,0.037c-0.164,2.113-0.253,4.237-0.163,6.355c-0.045-0.112-0.088-0.225-0.133-0.337
		c-0.934-2.312-2.062-4.372-3.693-6.272c-2.993-3.488-6.812-6.137-10.952-8.091c-9.491-4.48-20.069-5.542-30.305-7.18
		c-2.711-0.434-5.487-0.823-7.984-2.034c-2.232-1.083-4.04-2.757-5.654-4.614c-0.196-0.226-0.542-0.062-0.679,0.149
		c-0.47,0.723-0.799,1.513-1.155,2.291c-4.081,5.886-10.239,9.296-16.945,11.827c-5.496,2.074-12.203,2.146-16.715,6.326
		c-2.525,2.339-3.319,5.816-3.652,9.121c-0.201,1.995-0.188,4.005-0.069,6.005c0.013,0.226,0.031,0.502,0.058,0.794
		c-0.369-0.553-0.717-1.115-1-1.723c-0.659-1.415-1.058-2.955-1.327-4.489c-0.265-1.509-0.364-3.048-0.298-4.579
		c0.066-1.527,0.176-3.146,0.804-4.559c0.099-0.222-0.267-0.2-0.35-0.051c-1.61,2.907-1.81,6.251-1.459,9.502
		c0.15,1.391,0.506,2.752,0.997,4.063c-0.138,0.523-0.191,1.039-0.213,1.615c-0.033,0.844-0.152,1.696-0.311,2.525
		c-0.305,1.593-0.809,3.154-1.389,4.667c-0.482,1.256-1.033,2.487-1.745,3.631c-0.338,0.543-0.717,1.062-1.134,1.548
		c0.001-0.254,0.01-0.508,0.006-0.761c-0.019-1.232-0.078-2.462-0.1-3.694c-0.01-0.547-0.024-1.105-0.041-1.661
		c-0.849,3.447-1.451,7.027-0.809,10.469c0.478-0.508,0.664-1.331,0.777-1.972c0.033-0.187,0.036-0.378,0.058-0.567
		c0.91-0.545,1.63-1.513,2.195-2.345c0.845-1.245,1.472-2.651,2.003-4.053c0.573-1.512,1.045-3.053,1.31-4.65
		c0.145-0.869,0.255-1.76,0.24-2.642c-0.001-0.054-0.008-0.109-0.011-0.163c0.207,0.379,0.434,0.748,0.688,1.094
		c0.453,0.619,1.092,1.466,1.886,1.588c0.109,0.017,0.214-0.01,0.311-0.053c0.105,0.071,0.21,0.142,0.336,0.184
		c0.021,0.007,0.041-0.003,0.062,0.002c-0.11-0.06-0.207-0.144-0.294-0.239c0.129-0.095,0.215-0.24,0.198-0.417
		c-0.027-0.29-0.17-0.561-0.344-0.823c0.017-0.024,0.035-0.048,0.051-0.073c0.005-0.012,0.012-0.024,0.017-0.036
		c-0.003-0.001-0.005-0.002-0.008-0.003c0.01-0.016,0.02-0.032,0.03-0.048c0.002-0.005,0.006-0.008,0.007-0.013
		c0.06-0.145,0.152-0.287,0.229-0.431c-0.016-0.055-0.035-0.112-0.049-0.163c-0.248-0.879-0.236-1.831-0.269-2.738
		c-0.07-1.95-0.033-3.906,0.235-5.841c0.479-3.467,1.653-6.595,4.729-8.489c2.478-1.526,5.393-2.24,8.188-2.934
		c2.796-0.694,5.504-1.432,8.171-2.532c6.476-2.672,13.575-6.599,16.225-13.489c0.068-0.107,0.136-0.212,0.204-0.318
		c2.647,2.999,5.717,5.042,9.688,5.936c5.724,1.29,11.624,1.795,17.387,2.902c9.475,1.819,19.618,4.759,26.391,12.057
		c2.087,2.25,3.451,4.685,4.587,7.522c0.201,0.502,0.392,1.006,0.587,1.509c0.249,0.247,0.468,0.518,0.699,0.78
		c0.01,0.066,0.012,0.132,0.022,0.197c0.201,1.286,0.564,2.568,1.08,3.763c0.389,0.899,0.847,1.81,1.638,2.365
		C154.54,251.933,154.247,249.106,154.179,246.3z"/>
	<path style="fill:#4F3F35;" d="M184.209,250.031c-0.396,0.139-0.803,0.236-1.205,0.357c-2.191,0.31-4.92-1.016-6.548-2.116
		c-2.482-1.677-4.133-4.146-5.231-6.897c-0.155-0.388-0.747-0.038-0.694,0.304c0.519,3.353,2.597,6.337,5.523,8.055
		c0.957,0.562,2.134,1.118,3.363,1.491c-5.621,0.903-11.454,0.049-16.358-3.076c-5.634-3.59-9.498-9.295-12.096-15.344
		c-0.049-0.113-0.25-0.01-0.212,0.093c2.379,6.482,6.161,12.817,12.188,16.496c6.008,3.667,13.166,4.061,19.806,2.207
		c0.607-0.072,1.195-0.218,1.734-0.509C185.179,250.713,185.136,249.706,184.209,250.031z"/>
	<path style="fill:#4F3F35;" d="M131.497,256.374c-0.15-0.112-0.499,0.15-0.353,0.303c4.122,4.324,6.924,9.644,7.624,15.621
		c0.702,5.998-0.742,12.007-3.883,17.146c-0.416,0.68,0.576,0.714,0.912,0.266C143.193,279.845,141.583,263.869,131.497,256.374z"/>
	<path style="fill:#4F3F35;" d="M134.201,275.239c-0.346-2.718-1.181-5.407-2.556-7.785c-0.085-0.148-0.353,0.05-0.283,0.198
		c1.143,2.432,1.709,5.133,1.951,7.798c0.122,1.342,0.135,2.697,0.016,4.04c-0.111,1.238-0.403,2.439-0.568,3.667
		c-0.06,0.447,0.632,0.265,0.758,0.014C134.7,280.819,134.525,277.777,134.201,275.239z"/>
	<path style="fill:#4F3F35;" d="M111.73,270.123c-1.053-3.855-2.87-7.394-4.505-11.02c-0.118-0.261-0.589-0.021-0.496,0.217
		c1.347,3.438,2.734,6.895,3.685,10.469c1.008,3.786,1.293,7.7,0.954,11.6c-0.659,7.566-3.523,14.803-7.414,21.266
		c-0.319,0.53,0.445,0.551,0.705,0.206c4.621-6.121,7.38-13.72,8.04-21.343C113.033,277.681,112.747,273.842,111.73,270.123z"/>
	<path style="fill:#B07150;" d="M131.672,233.619c0.006-0.01,0.013-0.02,0.019-0.031c-0.051-0.011-0.1-0.005-0.152-0.015
		c-0.016-0.003-0.022-0.011-0.039-0.013c-0.496-0.07-0.916-0.252-1.283-0.514c-0.142-0.39-0.504-0.743-0.99-1.014
		c-0.472-0.262-1.393,0.334-1.031,0.885c0.156,0.238,0.326,0.463,0.507,0.674c-0.056,0.01-0.11,0.008-0.166,0.018
		c-0.304,0.056-0.718,0.502-0.694,0.83c-0.984,0.382-2.039,0.615-3.072,0.82c-4.176,0.828-8.529,0.871-12.771,0.767
		c-9.652-0.237-19.261-1.388-28.866,0.217c-2.126,0.355-4.284,0.805-6.305,1.57c-0.776,0.294-2.761,1.285-3.801,0.906
		c-0.213-0.182-0.411-0.383-0.61-0.601c-0.447-0.491-1.515,0.096-1.325,0.746c0.872,2.988,6.292-0.332,7.949-0.794
		c5.524-1.541,11.374-1.911,17.084-1.811c5.839,0.102,11.66,0.684,17.5,0.728c4.159,0.032,8.456-0.105,12.511-1.127
		c0.92-0.232,2.017-0.488,2.904-0.98c0.585,0.033,1.171,0.007,1.761,0.135C131.664,235.203,132.548,233.919,131.672,233.619z"/>
	<path style="fill:#B07150;" d="M106.592,243.773c-3.338,1.227-6.759,1.769-10.309,1.807c-1.774,0.019-3.553-0.029-5.328-0.041
		c-1.099-0.007-2.186-0.074-3.275-0.223c-0.733-0.1-1.445-0.162-2.146,0.089c-0.086,0.031-0.187,0.177-0.085,0.249
		c1.431,1.007,3.543,1.157,5.234,1.25c1.965,0.109,3.947,0.195,5.916,0.165c3.486-0.054,7.45-0.39,10.344-2.527
		C107.424,244.188,107.217,243.543,106.592,243.773z"/>
	<path style="fill:#967A6A;" d="M287.594,96.271c-0.709-0.464-1.451-0.887-2.236-1.255c-0.425-0.199-0.873-0.341-1.311-0.509
		c1.02,1.106,2.113,2.149,3.179,3.214c0.025-0.007,0.05-0.011,0.075-0.019c1.09,0.781,2.125,1.682,3.081,2.751
		c4.672,5.226,7.07,12.455,7.963,19.302c0.235,1.799,0.499,3.611,0.624,5.421c0.095,1.387,0.138,2.911-0.26,4.281
		c-2.716-2.508-5.69-4.547-8.877-6.153c-0.547-1.427-1.199-2.816-1.954-4.13c0.461,1.267,0.884,2.546,1.205,3.847
		c0.459,1.863,0.702,3.765,0.907,5.674c0.126,0.523,0.264,1.051,0.376,1.566c0.86,3.96,1.315,7.98,1.877,11.99
		c0.33,2.355,0.635,4.759,1.331,7.039c0.293,0.959,0.642,1.898,0.987,2.838c-2.032-2.083-4.265-3.982-6.358-5.995
		c-2.127-2.046-3.861-4.25-5.09-6.762c-0.363-0.271-0.714-0.556-1.057-0.85c0.047,0.92,0.08,1.841,0.146,2.761
		c0.012,0.024,0.022,0.049,0.034,0.073c0.179,0.765,0.346,1.532,0.492,2.298c0.712,3.722,1.186,7.522,1.2,11.314
		c0.029,7.986-1.415,16.173-3.496,23.865c-1.986,7.339-4.921,14.403-8.585,21.06c-3.769,6.847-8.557,13.069-12.367,19.883
		c-3.428,6.131-4.499,12.731-4.138,19.603c-0.858-1.126-1.441-2.69-1.912-3.769c-0.843-1.933-1.684-3.915-2.374-5.907
		c-0.386-1.117-0.663-2.242-0.891-3.368c0.379-0.667,0.745-1.342,1.083-2.034c1.903-3.891,3.826-8.207,4.813-12.62
		c-1.011,2.684-2.325,5.269-3.669,7.79c-1.599,3-3.239,5.971-5.214,8.706c-2.418,3.639-5.294,6.938-8.467,10.04
		c-4.917,4.807-10.557,8.662-16.397,12.255c-5.84,3.593-11.718,7.138-17.656,10.566c-6.438,3.717-13.018,7.083-19.81,10.082
		c5.891-6.747,12.264-13.064,17.866-20.07c5.185-6.486,9.827-13.457,13.305-21.014c3.669-7.973,5.893-16.525,7.041-25.212
		c0.605-4.576,0.899-9.197,0.831-13.814c-0.061-4.174-0.567-8.286-0.993-12.431c-0.223-2.176-0.434-4.427-0.711-6.682
		c-0.323-1.419-0.689-2.827-1.127-4.219c-1.494-4.738-3.656-9.235-4.147-14.176c-0.331-1.231-0.688-2.456-0.987-3.695
		c-1.847-7.66-3.287-15.419-5.471-22.996c-3.841-13.33-9.009-26.952-17.375-38.142c-4.116-5.506-9.141-10.717-15.051-14.302
		c-2.915-1.768-6.121-3.1-9.515-3.56c-3.541-0.48-7.16,0.05-10.611,0.869c-7.628,1.81-15.009,4.888-22.395,7.48
		c-7.866,2.761-15.821,5.426-23.494,8.698c-7.093,3.024-14.16,6.876-21.929,7.788c-7.137,0.838-13.97-2.341-19.141-7.12
		c-0.374-0.345-0.731-0.719-1.094-1.084c-0.035-0.046-0.071-0.081-0.106-0.126c-0.859-0.523-1.674-1.104-2.436-1.754
		c-3.989-1.066-8.878,4.399-11.091,7.381c-5.136,6.92-9.229,15.059-10.683,23.607c-0.72,4.234-0.776,8.61,0.09,12.82
		c-4.633-4.087-7.47-10.269-8.911-16.136c-0.829-3.374-1.087-6.872-0.696-10.325c0.033-1.228,0.162-2.464,0.336-3.709
		c0.16-1.141,0.321-2.375,0.604-3.572c-0.684,1.288-1.146,2.74-1.477,3.921c-0.142,0.507-0.214,1.029-0.322,1.543
		c-2.399,3.118-4.13,6.791-4.987,10.568c-0.653,2.881-0.849,5.932-0.211,8.835c0.345,1.569,0.973,3.057,1.744,4.461
		c0.272,0.495,0.602,0.968,0.943,1.438c-1.899-1.951-3.462-4.301-4.757-6.606c-2.028-3.61-3.352-7.691-3.509-11.847
		c-0.277-7.358,3.355-14.48,8.38-19.749C34.7,88.394,36.7,88.41,38.66,88.2c-0.865-0.061-1.728-0.147-2.583-0.277
		c-1.246-0.188-2.432-0.564-3.596-1.005c-0.032,0.032-0.068,0.059-0.1,0.092c-5.025-0.731-9.802-2.477-13.785-5.717
		c-9.31-7.572-14.08-20.592-12.531-32.37c0.498-3.785,1.597-7.576,3.339-10.981c0.817-1.596,1.799-3.102,2.827-4.569
		c0.49-0.699,1.002-1.382,1.489-2.083c0.4-0.576,0.77-1.238,1.312-1.694c0.157,2.511-0.558,5.085-0.817,7.56
		c-0.241,2.308-0.194,4.677,0.258,6.957c0.611,3.083,1.976,5.887,3.682,8.484c0.884,3.028,2.096,5.967,3.584,8.693
		c2.392,4.382,5.788,8.449,10.25,10.679c-2.708-2.002-4.976-4.714-6.788-7.412c-1.458-2.17-2.834-4.689-3.808-7.334
		c-0.197-0.463-0.411-0.919-0.591-1.387c0.043-0.023,0.069-0.061,0.1-0.095c-0.047-0.156-0.089-0.313-0.132-0.47
		c-0.11-0.146-0.22-0.292-0.33-0.439c-0.776-2.176-1.384-4.388-1.813-6.555c-1.297-6.55-0.557-13.313,2.378-19.336
		c2.808-5.763,7.387-10.958,12.791-14.411c2.496-1.595,5.186-2.621,7.961-3.601c1.181-0.417,2.37-0.816,3.595-1.086
		c0.879-0.194,2.031-0.439,2.938-0.108c-2.297,2.938-5.658,4.944-7.983,7.887c-2.315,2.93-3.974,6.435-4.779,10.08
		c-1.63,7.373,0.912,14.922,6.246,20.2c1.587,1.57,3.713,3.21,5.996,4.207c0.603,3.302,1.929,6.392,3.816,9.175
		c-0.904-2.21-1.702-4.437-2.151-6.808c-0.394-2.079-0.781-4.248-0.653-6.381c-0.005-0.319-0.031-0.635-0.021-0.955
		c0.219-6.996,3.166-13.67,7.775-18.888c4.917-5.567,11.398-9.505,18.156-12.438c7.043-3.057,14.558-4.878,22.161-5.843
		c8.017-1.018,16.395-1.207,24.435-0.049c-14.553,3.99-28.183,11.443-37.468,23.612c-4.5,5.898-7.632,12.527-10.141,19.473
		c-0.948,2.624-1.826,5.283-2.496,7.992c-0.347,1.401-0.668,2.865-0.828,4.335c0.216-0.972,0.402-1.95,0.657-2.914
		c0.8-3.022,1.656-6.02,2.789-8.938c1.457-3.752,3.311-7.397,5.741-10.6c1.08-2.073,2.26-4.096,3.592-6.047
		c9.147-13.394,23.397-21.565,38.841-25.657c7.871-2.085,16.021-3.468,24.132-4.163c8.312-0.712,16.817-0.673,25.003,1.088
		c4.099,0.881,8.158,2.131,12.156,3.387c4.193,1.318,8.35,2.829,12.256,4.859c8.045,4.183,15.474,9.452,23.285,14.035
		c6.82,4.002,14.243,7.451,22.258,7.884c3.456,0.186,7.161-0.096,10.429-1.314c2.413-0.899,4.325-2.538,6.039-4.417
		c0.623-0.683,1.214-1.394,1.812-2.098c0.008,2.032-0.701,4.117-1.383,5.971c-0.863,2.347-1.93,4.569-3.678,6.394
		c-1.732,1.808-3.877,3.095-6.189,4.036c-0.354-0.021-0.71-0.022-1.065-0.029c0.885,0.388,1.773,0.766,2.66,1.148
		c7.089,1.467,13.497,5.938,18.42,11.254c3.628,3.918,6.517,8.286,9.331,12.803c2.701,4.336,5.565,8.74,9.693,11.863
		c3.182,2.408,7.832,4.777,11.829,3.523C295.869,91.034,292.005,94.921,287.594,96.271z"/>
	<path style="fill:#967A6A;" d="M31.31,86.825c0.138-0.012,0.279-0.01,0.417-0.025c-4.678-2.475-9.124-5.44-12.773-9.304
		c-3.488-3.693-6.269-8.17-7.983-12.957c-1.394-3.895-2.086-8.066-2.447-12.175c-0.399-4.542-0.34-9.188,0.542-13.674
		c-1.533,3.211-2.538,6.718-3,10.233c-1.548,11.778,3.222,24.798,12.531,32.37C22.294,84.3,26.68,86.009,31.31,86.825z"/>
	<path style="fill:#967A6A;" d="M33.795,14.531c-5.404,3.454-9.983,8.649-12.791,14.411c-2.935,6.023-3.675,12.786-2.378,19.336
		c0.429,2.167,1.037,4.379,1.813,6.555c0.11,0.146,0.22,0.292,0.33,0.438c0.043,0.157,0.086,0.314,0.132,0.47
		c-0.031,0.034-0.057,0.072-0.1,0.095c0.18,0.468,0.394,0.925,0.591,1.387c0.973,2.644,2.35,5.163,3.808,7.333
		c0.938,1.396,2.016,2.778,3.2,4.076c0.262,0.124,0.525,0.246,0.785,0.375c-2.35-3.18-4.273-6.673-5.694-10.365
		c-1.889-4.908-2.95-10.177-2.954-15.443c-0.004-5.377,1.26-10.515,3.794-15.263c2.584-4.841,6.216-9.091,10.279-12.752
		c1.16-1.046,2.346-2.018,3.596-2.902C36.688,12.916,35.209,13.628,33.795,14.531z"/>
	<path style="fill:#967A6A;" d="M49.414,52.297c1.037,5.617,3.393,10.853,6.556,15.572c-0.761-3.438-1.883-6.784-2.766-10.198
		c-1.109-4.291-1.53-8.528-0.858-12.925c1.087-7.11,5.25-13.022,10.517-17.738c5.601-5.015,12.141-8.966,19.003-11.995
		c4.66-2.057,9.51-3.711,14.467-4.967c-7.426,0.981-14.76,2.782-21.642,5.769c-6.758,2.933-13.238,6.871-18.156,12.438
		c-4.362,4.939-7.205,11.187-7.686,17.773C48.857,48.123,49.031,50.221,49.414,52.297z"/>
	<path style="fill:#967A6A;" d="M121.973,11.18c-0.043,0.011-0.085,0.025-0.128,0.036c-10.864,4.439-20.888,11.183-28.633,20.016
		c-7.95,9.066-13.067,20.311-14.025,32.308c0.145-0.336,0.29-0.673,0.436-1.008c4.523-10.412,9.535-20.79,17.742-28.845
		c4.285-4.205,9.337-7.709,14.467-10.801c5.163-3.111,10.621-5.745,16.288-7.805c5.717-2.079,11.649-3.549,17.686-4.309
		c5.589-0.703,11.276-0.795,16.902-0.624c8.525,0.259,17.043,1.273,25.406,2.999c-1.604-0.589-3.221-1.144-4.85-1.656
		c-3.998-1.256-8.057-2.506-12.156-3.387c-8.186-1.76-16.691-1.8-25.003-1.087C137.994,7.712,129.844,9.095,121.973,11.18z"/>
	<path style="fill:#967A6A;" d="M143.476,40.273c-9.381,3.647-18.665,9.193-24.612,17.491c2.286-1.371,4.434-2.968,6.576-4.553
		c2.829-2.094,5.665-4.08,8.793-5.706c5.471-2.844,11.215-5.172,17.132-6.911c5.805-1.706,11.744-2.708,17.724-3.563
		c6.049-0.865,12.225-1.622,18.404-1.896c-2.317-0.5-4.648-0.872-7.049-1.047C167.88,33.172,155.167,35.728,143.476,40.273z"/>
	<path style="opacity:0.46;fill:#967A6A;" d="M298.709,129.458c0.397-1.37,0.355-2.895,0.26-4.281
		c-0.124-1.81-0.389-3.623-0.624-5.422c-0.893-6.848-3.292-14.077-7.963-19.302c-0.956-1.069-1.991-1.97-3.081-2.751
		c-0.025,0.007-0.05,0.011-0.075,0.019c-1.066-1.065-2.158-2.108-3.179-3.214c0.438,0.168,0.885,0.31,1.311,0.509
		c0.785,0.368,1.527,0.791,2.236,1.255c4.411-1.35,8.275-5.237,11.366-8.867c-3.997,1.254-8.647-1.115-11.829-3.523
		c-4.128-3.123-6.992-7.527-9.693-11.863c-2.814-4.517-5.703-8.885-9.331-12.803c-4.923-5.316-11.331-9.787-18.42-11.254
		c-0.887-0.382-1.776-0.761-2.66-1.148c0.355,0.007,0.712,0.008,1.065,0.029c2.312-0.941,4.457-2.228,6.189-4.036
		c1.748-1.824,2.814-4.047,3.678-6.394c0.682-1.854,1.392-3.938,1.383-5.971c-0.598,0.705-1.189,1.416-1.812,2.098
		c-1.714,1.879-3.626,3.518-6.039,4.417c-3.267,1.217-6.973,1.5-10.429,1.314c-8.014-0.432-15.438-3.881-22.258-7.884
		c-3.06-1.796-6.061-3.696-9.064-5.595c1.11,1.744,2.053,3.595,2.726,5.587c0.143,0.424-0.31,0.852-0.725,0.725
		c-1.267-0.388-2.536-0.767-3.808-1.135c-10.254-2.964-20.76-5.234-31.427-5.956c-10.515-0.712-20.947,0.297-31.183,2.774
		c-9.288,2.247-18.263,5.714-26.642,10.308c-8.527,4.675-16.53,10.467-23.481,17.278c-3.434,3.365-6.671,6.96-9.17,11.083
		c-2.361,3.896-4.29,8.086-7.184,11.636c-0.295,0.362-0.865,0.127-0.985-0.26c-0.975-3.154-0.844-6.572-0.426-9.809
		c0.426-3.307,1.194-6.558,2.095-9.765c0.897-3.194,1.857-6.332,3.145-9.395c1.295-3.079,2.819-6.059,4.564-8.906
		c3.438-5.609,7.706-10.572,12.664-14.89c5.219-4.545,11.054-8.352,17.248-11.45c-13.557,4.44-25.833,12.233-34.019,24.219
		c-1.332,1.951-2.512,3.975-3.592,6.048c-2.43,3.203-4.284,6.848-5.741,10.6c-1.133,2.917-1.989,5.916-2.789,8.938
		c-0.255,0.963-0.44,1.942-0.657,2.914c0.16-1.47,0.481-2.933,0.828-4.335c0.671-2.709,1.549-5.368,2.496-7.992
		c2.509-6.946,5.642-13.576,10.141-19.473c9.285-12.169,22.915-19.622,37.468-23.612c-0.791-0.114-1.587-0.205-2.384-0.293
		c-1.683,0.362-3.361,0.751-5.028,1.182c-7.743,2-15.32,4.755-22.393,8.508c-6.867,3.644-13.406,8.265-18.6,14.089
		c-4.718,5.29-7.97,11.621-9.756,18.467c-1.842,7.061-2.248,14.405-2.357,21.672c-0.009,0.624-0.767,0.75-1.098,0.297
		c-1.89-2.586-3.703-5.231-5.364-7.971c-1.176-1.939-2.303-3.986-3.319-6.103c0.192,0.506,0.39,1.011,0.596,1.514
		c-1.887-2.783-3.212-5.874-3.815-9.175c-2.283-0.997-4.41-2.637-5.996-4.207c-5.334-5.279-7.876-12.827-6.246-20.2
		c0.806-3.645,2.465-7.151,4.779-10.081c2.325-2.943,5.686-4.949,7.983-7.887c-0.542-0.198-1.168-0.181-1.775-0.101
		c-0.858,0.515-1.706,1.049-2.528,1.626c-4.275,3.001-7.912,6.893-10.386,11.508c-2.736,5.105-3.957,10.932-3.904,16.702
		c0.126,13.885,7.485,26.895,17.085,36.529c0.414,0.416-0.005,1.143-0.573,0.985c-4.913-1.369-9.504-3.696-13.515-6.845
		c-6.875-5.396-11.834-13.142-13.932-21.621c-0.121-0.49-0.229-0.982-0.33-1.476c0.065,0.412,0.115,0.825,0.196,1.236
		c0.429,2.167,1.037,4.379,1.813,6.555c0.11,0.146,0.22,0.292,0.33,0.438c0.043,0.157,0.086,0.314,0.132,0.47
		c-0.031,0.034-0.057,0.072-0.1,0.095c0.18,0.468,0.394,0.925,0.591,1.387c0.973,2.644,2.35,5.163,3.808,7.333
		c1.813,2.698,4.081,5.41,6.788,7.412c-4.462-2.23-7.858-6.297-10.25-10.679c-1.488-2.726-2.7-5.665-3.584-8.693
		c-1.706-2.597-3.07-5.401-3.682-8.484c-0.452-2.281-0.5-4.649-0.258-6.957c0.259-2.475,0.974-5.05,0.817-7.56
		c-0.542,0.456-0.912,1.118-1.312,1.694c-0.487,0.701-1,1.384-1.489,2.083c-0.232,0.331-0.448,0.674-0.674,1.01
		c-0.418,1.491-0.705,3.025-0.853,4.567c-0.424,4.406,0.038,8.875,1.02,13.178c0.93,4.074,2.321,8.078,4.256,11.786
		C18.153,68.076,21.344,71.52,25.33,74c3.953,2.459,8.399,3.961,12.85,5.237c0.516,0.148,0.543,0.792,0.141,1.077
		c-2.883,2.043-6.147,3.667-9.658,4.253c-1.514,0.253-3.021,0.271-4.496,0.113c2.593,1.157,5.36,1.915,8.213,2.33
		c0.032-0.032,0.068-0.06,0.1-0.092c1.164,0.441,2.35,0.817,3.596,1.005c0.856,0.129,1.718,0.216,2.583,0.277
		c-1.961,0.21-3.96,0.195-5.896-0.013c-0.838,0.879-1.633,1.813-2.382,2.788c1.753-0.709,3.573-1.26,5.399-1.572
		c0.596-0.102,0.954,0.518,0.573,0.985c-2.428,2.974-4.415,6.311-5.979,9.813c-2.391,5.353-3.889,11.379-3.63,17.297
		c0.353,0.778,0.732,1.544,1.148,2.285c1.295,2.305,2.858,4.656,4.757,6.606c-0.34-0.469-0.671-0.942-0.943-1.438
		c-0.772-1.405-1.399-2.892-1.744-4.461c-0.639-2.903-0.443-5.955,0.211-8.835c0.857-3.777,2.587-7.451,4.987-10.568
		c0.108-0.514,0.18-1.036,0.322-1.543c0.331-1.181,0.793-2.633,1.477-3.921c-0.283,1.197-0.444,2.431-0.604,3.572
		c-0.144,1.03-0.243,2.053-0.296,3.071c0.762-2.536,1.747-5.052,3.134-7.303c3.849-6.247,10.257-12.017,17.861-12.619
		c0.651-0.052,0.709,0.786,0.298,1.098c-3.687,2.795-6.795,6.321-9.232,10.246c-4.338,6.986-6.654,15.29-6.318,23.523
		c0.146,3.57,0.834,7.076,2.044,10.375c0.564,0.626,1.153,1.225,1.782,1.78c-0.867-4.21-0.811-8.586-0.09-12.82
		c1.454-8.549,5.547-16.687,10.683-23.607c2.213-2.982,7.101-8.447,11.091-7.381c0.762,0.65,1.577,1.231,2.436,1.754
		c0.035,0.044,0.071,0.08,0.106,0.126c0.363,0.365,0.72,0.739,1.094,1.084c5.171,4.779,12.004,7.958,19.141,7.12
		c7.769-0.912,14.837-4.765,21.929-7.789c7.673-3.271,15.627-5.936,23.494-8.698c7.385-2.592,14.766-5.67,22.395-7.48
		c3.451-0.819,7.07-1.349,10.611-0.869c3.394,0.46,6.6,1.791,9.515,3.559c5.91,3.585,10.934,8.797,15.051,14.302
		c8.366,11.189,13.534,24.812,17.375,38.142c2.183,7.576,3.623,15.336,5.471,22.996c0.299,1.239,0.656,2.464,0.987,3.695
		c0.491,4.941,2.653,9.439,4.147,14.176c0.439,1.392,0.805,2.8,1.127,4.219c0.277,2.255,0.488,4.506,0.711,6.682
		c0.426,4.146,0.931,8.257,0.993,12.431c0.068,4.616-0.226,9.237-0.831,13.814c-1.148,8.687-3.372,17.239-7.041,25.211
		c-3.478,7.557-8.12,14.529-13.305,21.014c-5.602,7.007-11.975,13.323-17.866,20.07c6.792-2.998,13.372-6.365,19.81-10.082
		c5.938-3.428,11.816-6.972,17.656-10.566c5.84-3.593,11.479-7.448,16.397-12.255c3.174-3.103,6.05-6.402,8.467-10.04
		c1.975-2.735,3.615-5.707,5.214-8.706c1.344-2.521,2.658-5.106,3.669-7.79c-0.987,4.414-2.91,8.729-4.813,12.62
		c-0.338,0.691-0.704,1.367-1.083,2.034c0.227,1.126,0.504,2.251,0.891,3.368c0.689,1.992,1.53,3.974,2.374,5.907
		c0.471,1.079,1.054,2.643,1.912,3.769c-0.361-6.872,0.71-13.471,4.138-19.603c3.81-6.814,8.599-13.036,12.367-19.883
		c3.664-6.657,6.6-13.721,8.585-21.06c2.081-7.691,3.524-15.879,3.496-23.865c-0.014-3.792-0.488-7.592-1.2-11.314
		c-0.147-0.766-0.313-1.533-0.492-2.298c-0.013-0.024-0.022-0.049-0.034-0.073c-0.066-0.919-0.099-1.84-0.146-2.761
		c0.342,0.294,0.693,0.579,1.056,0.85c1.228,2.513,2.962,4.717,5.09,6.763c2.093,2.013,4.326,3.912,6.358,5.995
		c-0.345-0.94-0.693-1.879-0.987-2.838c-0.697-2.28-1.001-4.684-1.331-7.039c-0.562-4.009-1.017-8.029-1.877-11.99
		c-0.112-0.514-0.25-1.043-0.376-1.566c-0.204-1.909-0.448-3.811-0.907-5.674c-0.32-1.301-0.744-2.58-1.205-3.847
		c0.755,1.313,1.407,2.702,1.954,4.129C293.019,124.911,295.992,126.95,298.709,129.458z M173.475,49.698
		c-8.31,0.878-16.563,2.358-24.632,4.539c-7.979,2.157-15.776,5.002-23.214,8.613c-7.513,3.647-14.652,8.062-21.237,13.2
		c-0.538,0.42-1.199-0.088-0.925-0.714c3.013-6.897,7.188-13.251,12.505-18.594c4.756-4.779,10.336-8.543,16.149-11.912
		c6.108-3.54,12.569-6.496,19.237-8.816c13.179-4.585,27.946-7.006,41.667-3.44c0.515,0.134,0.508,0.725,0.209,1.005
		c4.133,1.184,8.071,2.921,11.924,4.87c4.5,2.275,8.904,4.796,12.957,7.806c3.837,2.849,7.471,6.169,9.933,10.312
		c0.244,0.411-0.171,1.061-0.665,0.866c-1.036-0.411-2.076-0.812-3.12-1.201c-7.967-2.969-16.207-5.241-24.642-6.38
		C190.935,48.678,182.177,48.779,173.475,49.698z M264.331,124.108c-3.909,2.045-8.177,3.095-12.57,3.35
		c-3.82,0.222-7.645-0.1-11.443-0.498c-3.249-0.341-6.56-0.922-9.761,0.047c-5.294,1.603-7.576,7.079-9.23,11.869
		c-0.215,0.623-1.141,0.524-1.157-0.157c-0.113-4.74-0.261-9.482-0.611-14.212c-0.597-8.064-1.792-16.16-4.572-23.787
		c-2.862-7.851-7.5-14.86-13.674-20.498c-0.399-0.364-0.063-0.978,0.417-1.006c7.051-0.407,14.055,1.005,20.131,4.466
		c-1.319-1.39-2.705-2.717-4.172-3.955c-4.755-4.015-10.325-7.453-16.273-9.353c-6.222-1.987-12.784-2.397-19.133-3.817
		c-0.471-0.105-0.603-0.867-0.141-1.077c4.552-2.065,9.39-3.379,14.318-4.169c4.345-0.697,8.744-1.016,13.141-1.101
		c4.221-0.082,8.406,0.24,12.511,1.268c4.97,1.245,9.576,3.44,14.102,5.797c3.305,1.271,6.464,2.923,9.429,4.92
		c4.66,3.138,10.563,7.671,10.637,13.866c0.006,0.466-0.499,0.708-0.887,0.509c-1.979-1.02-3.973-2.01-5.998-2.934
		c-4.128-1.883-8.41-3.54-12.856-4.494c-3.794-0.814-7.896-1.116-11.6,0.225c1.103,2.622,2.596,5.073,4.196,7.417
		c1.537,2.252,3.19,4.422,4.846,6.586c1.594,2.082,3.094,4.24,5.008,6.047c3.53,3.333,7.93,5.541,11.644,8.646
		c0.405,0.339,0.06,1.006-0.417,1.006c-6.591,0.003-13.258,0.101-19.484-2.169c1.281,1.695,2.737,3.257,4.286,4.709
		c4.016,3.767,8.705,6.904,13.755,9.105c4.665,2.033,10.024,3.39,15.102,2.317C264.506,122.898,264.948,123.785,264.331,124.108z"/>
	<path style="opacity:0.46;fill:#967A6A;" d="M127.099,78.064c-6.653,2.62-13.147,5.644-19.838,8.165
		c-6.614,2.492-13.863,4.603-21.009,4.034c-3.261-0.259-6.454-1.045-9.379-2.531c-1.128-0.573-2.077-1.183-2.935-2.108
		c-0.826-0.89-1.585-1.84-2.404-2.737c-0.569-0.623-1.31-1.596-2.199-1.748c-0.467-0.08-0.988,0.042-1.435,0.229
		c-1.409,0.592-2.565,1.794-3.564,2.911c-0.747,0.836-1.444,1.718-2.11,2.627c1.683-1.125,3.457-1.784,5.083-1.35
		c0.762,0.65,1.577,1.231,2.436,1.754c0.035,0.044,0.071,0.08,0.106,0.126c0.363,0.365,0.72,0.739,1.094,1.084
		c5.171,4.779,12.004,7.958,19.141,7.12c7.769-0.912,14.837-4.765,21.929-7.789c7.673-3.271,15.627-5.936,23.494-8.698
		c7.385-2.592,14.766-5.67,22.395-7.48c3.335-0.791,6.826-1.304,10.253-0.905C154.221,68.077,139.964,72.997,127.099,78.064z"/>
	<path style="opacity:0.46;fill:#967A6A;" d="M185.387,30.878c-4.949-1.22-9.939-1.225-14.988-0.74
		c-9.254,0.89-18.262,3.442-27.103,6.213c-6.242,1.956-12.263,4.38-17.854,7.812c-5.334,3.274-10.326,7.414-13.79,12.682
		c-2.165,3.293-3.556,6.922-4.129,10.707c2.39-3.908,5.204-7.549,8.449-10.81c4.756-4.779,10.336-8.543,16.149-11.912
		c6.108-3.54,12.569-6.496,19.237-8.816c11.433-3.977,24.06-6.319,36.163-4.544C186.814,31.257,186.104,31.055,185.387,30.878z"/>
	<path style="opacity:0.46;fill:#967A6A;" d="M298.709,129.458c0.397-1.37,0.355-2.895,0.26-4.281
		c-0.124-1.81-0.389-3.623-0.624-5.422c-0.893-6.848-3.292-14.077-7.963-19.302c-0.956-1.069-1.991-1.97-3.081-2.751
		c-0.025,0.007-0.05,0.011-0.075,0.019c-1.066-1.065-2.158-2.108-3.179-3.214c0.438,0.168,0.885,0.31,1.311,0.509
		c0.785,0.368,1.527,0.791,2.236,1.255c4.411-1.35,8.275-5.237,11.366-8.867c-3.997,1.254-8.647-1.115-11.829-3.523
		c-4.128-3.123-6.992-7.527-9.693-11.863c-2.814-4.517-5.703-8.885-9.331-12.803c-4.923-5.316-11.331-9.787-18.42-11.254
		c-0.887-0.382-1.776-0.761-2.66-1.148c0.355,0.007,0.712,0.008,1.065,0.029c2.312-0.941,4.457-2.228,6.189-4.036
		c1.748-1.824,2.814-4.047,3.678-6.394c0.402-1.095,0.811-2.271,1.08-3.468c-3.075,4.307-7.627,7.585-12.221,10.075
		c-2.67,1.447-5.562,2.765-8.551,3.658c2.832,0.263,5.634,0.842,8.347,1.728c8.419,2.752,15.855,8.104,21.826,14.575
		c6.008,6.512,10.732,14.318,13.369,22.794c0.216,0.693-0.705,0.944-1.077,0.454c-5.425-7.153-13.498-11.007-22.037-13.008
		c2.01,2.177,4.016,4.357,5.961,6.592c4.633,5.323,9.069,10.955,12.362,17.224c3.019,5.748,5.103,12.23,4.008,18.77
		c-0.06,0.36-0.574,0.555-0.866,0.352c-4.122-2.87-7.981-6.132-12.283-8.722c1.535,2.108,2.862,4.361,3.994,6.715
		c2.969,6.174,4.745,12.893,5.659,19.667c0.89,6.599,0.973,13.326-0.023,19.917c-0.09,0.599-0.995,0.523-1.136,0
		c-0.926-3.421-2.387-6.736-4.197-9.779c-1.837-3.088-4.364-6.566-7.911-7.787c-2.979-1.025-6.285-0.057-8.445,2.165
		c-2.266,2.331-3.472,5.561-4.34,8.634c-0.94,3.328-1.416,6.704-1.914,10.119c-0.602,4.13-1.303,8.247-2.212,12.321
		c-1.648,7.388-4.034,14.635-7.674,21.294c-3.488,6.382-8.074,12.052-13.287,17.093c2.923-0.673,5.973-0.651,8.942-1.215
		c0.334-0.063,0.793,0.157,0.746,0.568c-0.469,4.094-1.903,7.978-3.979,11.526c-0.072,0.122-0.155,0.237-0.228,0.358
		c0.025,0,0.05,0.005,0.076,0.006c3.387,0.032,6.755-1.303,9.731-2.809c2.793-1.413,5.511-3.12,7.862-5.197
		c0.435-0.384,1.133-0.016,0.985,0.573c-0.712,2.837-1.506,5.655-2.43,8.431c-1.623,4.88-3.702,9.52-6.376,13.913
		c-0.664,1.091-1.358,2.182-2.044,3.283c2.787-2.818,5.335-5.796,7.502-9.056c1.975-2.735,3.615-5.707,5.214-8.706
		c1.344-2.521,2.658-5.106,3.669-7.79c-0.987,4.414-2.91,8.729-4.813,12.62c-0.338,0.691-0.704,1.367-1.083,2.034
		c0.227,1.126,0.504,2.251,0.891,3.368c0.689,1.992,1.53,3.974,2.374,5.907c0.471,1.079,1.054,2.643,1.912,3.769
		c-0.361-6.872,0.71-13.471,4.138-19.603c3.81-6.814,8.599-13.036,12.367-19.883c3.664-6.657,6.6-13.721,8.585-21.06
		c2.081-7.691,3.524-15.879,3.496-23.865c-0.014-3.792-0.488-7.592-1.2-11.314c-0.147-0.766-0.313-1.533-0.492-2.298
		c-0.013-0.024-0.022-0.049-0.034-0.073c-0.066-0.919-0.099-1.84-0.146-2.761c0.342,0.294,0.693,0.579,1.056,0.85
		c1.228,2.513,2.962,4.717,5.09,6.763c2.093,2.013,4.326,3.912,6.358,5.995c-0.345-0.94-0.693-1.879-0.987-2.838
		c-0.697-2.28-1.001-4.684-1.331-7.039c-0.562-4.009-1.017-8.029-1.877-11.99c-0.112-0.514-0.25-1.043-0.376-1.566
		c-0.204-1.909-0.448-3.811-0.907-5.674c-0.32-1.301-0.744-2.58-1.205-3.847c0.755,1.313,1.407,2.702,1.954,4.129
		C293.019,124.911,295.992,126.95,298.709,129.458z"/>
	<path style="opacity:0.46;fill:#967A6A;" d="M189.131,83.847c-0.823-1.205-1.704-2.368-2.667-3.472
		c-1.867-2.141-4.025-4.018-6.499-5.426c-1.821-1.037-3.778-1.86-5.777-2.549c1.326,0.558,2.611,1.219,3.841,1.966
		C182.171,76.877,185.867,80.196,189.131,83.847z"/>
	<path style="fill:#4F3F35;" d="M223.713,40.635c-9.038-4.324-18.885-7.168-28.759-8.787c-9.876-1.619-19.956-1.882-29.874-0.454
		c-9.396,1.353-18.523,4.342-27.135,8.301c-8.229,3.784-16.077,8.528-23.121,14.231c-7.892,6.392-14.691,13.89-20.123,22.476
		c-0.188,0.298,0.266,0.341,0.414,0.12c9.91-14.83,24.276-26.611,40.22-34.447c8.21-4.035,16.95-7.239,25.953-8.939
		c9.758-1.843,19.804-1.956,29.647-0.751c11.205,1.371,21.901,4.669,32.389,8.747C223.566,41.226,223.998,40.771,223.713,40.635z"/>
	<path style="fill:#B07150;" d="M264.78,142.091c-5.589-5.272-13.663-6.034-20.915-4.619c-7.537,1.471-13.996,6.34-18.264,12.621
		c-0.337,0.496-0.632,1.024-0.945,1.54c-0.766,2.101-1.635,4.176-2.281,6.306c-1.321,4.354-2.392,8.596-2.998,13.113
		c-0.039,0.293-0.095,0.581-0.136,0.874c0.009,0.064,0.009,0.129,0.019,0.192c-0.659,3.926-1.15,7.879-1.402,11.855
		c-0.45,7.095-0.39,14.522,1.481,21.43c1.611,5.945,5.184,11.874,11.939,12.36c6.587,0.473,12.956-3.903,17.375-8.367
		c2.305-2.328,4.112-4.909,5.625-7.803c2.314-4.428,4.59-8.876,7.013-13.246c4.346-7.836,9.398-15.451,10.264-24.602
		C272.286,156.024,270.609,147.589,264.78,142.091z"/>
	<path style="fill:#FBC19F;" d="M267.94,172.666c-1.555,4.064-3.74,7.843-5.907,11.603c-2.276,3.948-4.433,7.957-6.544,11.995
		c-1.673,3.201-3.152,6.607-5.374,9.479c-3.685,4.763-9.183,9.258-15.247,10.354c-2.973,0.537-5.996-0.025-8.418-1.883
		c-2.353-1.806-3.826-4.579-4.805-7.322c-2.043-5.724-2.447-11.994-2.393-18.025c0.034-3.811,0.304-7.611,0.744-11.393
		c0.02-0.26,0.033-0.519,0.055-0.779c0.256-3.05,0.52-6.1,0.994-9.126c0.448-2.859,1.077-5.735,1.827-8.531
		c0.338-1.26,0.746-2.491,1.273-3.665c-0.001-0.011,0.004-0.027,0.002-0.037c0.101-0.219,0.177-0.444,0.285-0.662
		c3.262-6.594,8.738-12.255,15.724-14.82c6.567-2.411,15.011-2.458,20.993,1.496c6.493,4.292,9.039,12.145,8.985,19.624
		C270.106,164.986,269.375,168.917,267.94,172.666z"/>
	<path style="opacity:0.72;fill:#FBC19F;" d="M256.609,191.233c-3.652,1.693-7.935,3.311-12.022,2.536
		c-0.39-0.074-0.518-0.555-0.352-0.866c0.48-0.896,1-1.77,1.556-2.621c4.515-6.91,11.178-12.524,13.818-20.559
		c0.897-2.729,1.394-5.676,1.643-8.532c0.265-3.032,0.227-6.212-0.794-9.113c-1.002-2.846-3.197-5.083-6.216-5.681
		c-4.348-0.861-8.564,1.871-11.697,4.581c-3.279,2.836-6.362,6.229-8.586,9.959c-1.19,1.996-2.287,4.289-2.289,6.655
		c-0.002,2.411,0.687,4.76,0.735,7.168c0.073,3.694-2.058,6.947-4.142,9.833c-2.131,2.95-4.549,5.666-6.824,8.502
		c-0.296,0.368-0.861,0.12-0.985-0.26c-0.486-1.493-0.875-3.016-1.186-4.556c-0.003,0.195-0.012,0.39-0.014,0.586
		c-0.054,6.032,0.35,12.301,2.393,18.025c0.979,2.743,2.451,5.516,4.805,7.322c2.421,1.858,5.444,2.42,8.418,1.883
		c6.064-1.095,11.562-5.59,15.247-10.354c2.222-2.872,3.7-6.278,5.374-9.479c1.069-2.046,2.152-4.084,3.254-6.111
		C258.037,190.523,257.332,190.898,256.609,191.233z"/>
	<path style="fill:#B07150;" d="M262.285,153.332c-0.897-2.638-2.68-4.908-5.299-5.999c-5.658-2.356-11.836,2.305-15.552,6.156
		c-4.61,4.778-8.304,11.471-7.523,18.303c0.113,0.991,0.337,1.957,0.151,2.953c-0.205,1.094-0.869,2.003-1.45,2.93
		c-0.984,1.572-1.986,3.137-2.85,4.779c-1.598,3.038-2.716,6.377-2.84,9.83c-0.126,3.518,0.865,7.315,3.549,9.752
		c2.328,2.113,5.621,2.853,8.372,1.126c0.168-0.105,0.034-0.283-0.131-0.187c-3.072,1.778-6.694,0.246-8.599-2.49
		c-1.859-2.671-2.447-6.004-2.133-9.198c0.04-0.412,0.137-0.811,0.204-1.216c0.136,0.705,0.362,1.376,0.58,1.848
		c0.781,1.69,2.352,3.215,4.143,3.785c3.43,1.093,7.207-0.933,9.656-3.228c1.417-1.328,2.523-2.919,3.178-4.753
		c0.101-0.284-0.327-0.195-0.412-0.007c-0.793,1.744-2.226,3.275-3.708,4.465c-1.512,1.213-3.263,2.223-5.197,2.544
		c-1.985,0.33-3.865-0.278-5.368-1.595c-1.601-1.402-2.77-3.692-2.027-5.822c0.048-0.139-0.019-0.205-0.115-0.226
		c0.598-1.827,1.402-3.588,2.361-5.27c0.78-1.367,1.631-2.691,2.469-4.023c0.751-1.193,1.493-2.34,1.606-3.782
		c0.111-1.421-0.308-2.838-0.311-4.262c-0.003-1.738,0.283-3.463,0.793-5.122c0.989-3.216,2.756-6.16,4.878-8.755
		c3.206-3.921,8.563-8.89,14.089-7.995c6.742,1.092,7.259,9.096,8.257,14.429c0.053,0.283,0.53,0.029,0.495-0.217
		C263.141,159.129,263.262,156.204,262.285,153.332z"/>
	<path style="fill:#4F3F35;" d="M279.361,105.215c-10.376,11.808-27.356,1.364-37.149-5.714
		c-11.2-8.094-20.945-18.537-33.595-24.478c-7.09-3.329-14.725-4.702-22.489-3.41c-0.22,0.037-0.309,0.392-0.023,0.354
		c15.118-2.026,28.072,6.749,39.246,15.812c5.438,4.41,10.698,9.046,16.384,13.143c5.545,3.995,11.532,7.797,18.143,9.736
		c3.438,1.009,7.131,1.425,10.669,0.706c2.909-0.591,5.383-2.002,7.567-3.869c-1.034,1.878-2.163,3.686-3.701,5.223
		c-2.069,2.066-4.625,3.635-7.26,4.873c-5.181,2.433-11.532,3.962-17.109,1.986c-0.525-0.186-1.256,0.697-0.608,0.977
		c5.769,2.483,12.75,0.602,18.152-1.995c2.677-1.287,5.276-2.89,7.413-4.97c2.347-2.285,3.793-5.21,5.173-8.134
		C280.421,104.928,279.597,104.947,279.361,105.215z"/>
	<path style="fill:#4F3F35;" d="M279.794,85.19c-7.195-1.669-13.453-5.584-19.547-9.598c-6.151-4.052-12.412-7.943-19.173-10.908
		c-14.893-6.53-31.364-6.962-47.341-5.788c-8.223,0.604-16.455,2.156-23.9,5.827c-0.234,0.115-0.196,0.476,0.087,0.343
		c6.796-3.186,14.341-4.664,21.788-5.254c7.902-0.627,15.913-0.791,23.818-0.148c7.977,0.649,15.863,2.247,23.271,5.325
		c6.889,2.862,13.302,6.729,19.518,10.823c6.509,4.287,13.163,8.801,20.987,10.166C279.724,86.052,280.352,85.319,279.794,85.19z"/>
	<g>
		<defs>
			<path id="SVGID_1_" d="M84.058,180.587c-0.855,0.3-2.1,0.308-2.986,0.379c-0.964,0.078-1.931,0.106-2.898,0.097
				c-4.016-0.037-8-0.722-11.943-1.427c-2.941-0.526-6.053-1.163-8.615-2.779c-1.421-0.897-2.575-2.259-3.244-3.817
				c-0.545-4.391,0.116-8.725,1.233-12.982c1.065-4.06,3.653-8.558,8.211-9.192c4.345-0.605,9.251,1.364,12.69,3.902
				c3.56,2.628,6.254,6.292,7.746,10.449c0.867,2.414,1.385,4.926,1.531,7.487c0.067,1.187,0.001,2.323-0.132,3.45
				c-0.04,0.043-0.09,0.084-0.107,0.131C85.11,177.475,85.405,180.115,84.058,180.587z"/>
		</defs>
		<clipPath id="SVGID_00000150069302528787097920000016810889847340707969_">
			<use xlink:href="#SVGID_1_"  style="overflow:visible;"/>
		</clipPath>
		<g style="clip-path:url(#SVGID_00000150069302528787097920000016810889847340707969_);">
			<g>
				
					<ellipse transform="matrix(0.0739 -0.9973 0.9973 0.0739 -101.916 224.7863)" style="fill:#645B54;" cx="70.07" cy="167.266" rx="17.021" ry="14.625"/>
			</g>
			<g>
				<path style="fill:#38332E;" d="M69.12,180.097c-6.079-0.45-10.598-6.573-10.074-13.648c0.524-7.075,5.896-12.464,11.975-12.014
					c6.079,0.45,10.599,6.573,10.074,13.648C80.571,175.158,75.199,180.547,69.12,180.097z"/>
			</g>
			<g>
				<path style="fill:#FFFFFF;" d="M67.927,159.282c-0.154,2.082-1.73,3.663-3.519,3.53c-1.789-0.133-3.114-1.928-2.96-4.01
					c0.154-2.082,1.73-3.663,3.519-3.53C66.756,155.404,68.081,157.199,67.927,159.282z"/>
			</g>
		</g>
	</g>
	<g>
		<defs>
			<path id="SVGID_00000103225819346760962560000016236044989474049724_" d="M175.641,167.851c-1.006,0.762-2.097,1.436-3.172,2.095
				c-2.314,1.419-4.717,2.683-7.206,3.767c-4.825,2.102-9.919,3.544-15.086,4.514c-6.01,1.129-12.249,1.809-18.368,1.626
				c-2.464-0.074-4.935-0.369-7.361-0.811c-0.845-0.154-1.702-0.401-2.352-0.819c0.096-0.137,0.145-0.285,0.02-0.418
				c-0.377-0.401-0.317-1.41-0.357-1.922c-0.08-1.026-0.094-2.037-0.031-3.066c0.163-2.623,0.768-5.135,1.521-7.646
				c0.184-0.612,0.381-1.218,0.587-1.819c0.125-0.295,0.238-0.593,0.372-0.886c2.228-4.887,5.667-9.161,9.895-12.466
				c7.05-5.51,17.03-8.857,25.931-6.654c9.784,2.421,15.195,12.033,16.415,21.488C176.606,166.038,176.671,167.071,175.641,167.851z
				"/>
		</defs>
		<clipPath id="SVGID_00000124123977889550809870000015367709297378020784_">
			<use xlink:href="#SVGID_00000103225819346760962560000016236044989474049724_"  style="overflow:visible;"/>
		</clipPath>
		<g style="clip-path:url(#SVGID_00000124123977889550809870000015367709297378020784_);">
			<g>
				<path style="fill:#645B54;" d="M163.501,165.222c0.257,10.563-7.257,19.313-16.782,19.544
					c-9.525,0.231-17.454-8.144-17.711-18.706c-0.257-10.562,7.257-19.312,16.782-19.544
					C155.315,146.284,163.245,154.659,163.501,165.222z"/>
			</g>
			<g>
				<path style="fill:#38332E;" d="M146.606,180.097c-7.188,0.174-13.194-6.169-13.388-14.14
					c-0.194-7.971,5.497-14.599,12.685-14.773c7.188-0.175,13.194,6.169,13.388,14.14
					C159.485,173.295,153.794,179.923,146.606,180.097z"/>
			</g>
			<g>
				<path style="fill:#FFFFFF;" d="M142.825,156.95c0.057,2.346-1.612,4.29-3.727,4.341c-2.116,0.051-3.877-1.809-3.934-4.155
					c-0.057-2.346,1.612-4.289,3.727-4.341C141.007,152.743,142.768,154.604,142.825,156.95z"/>
			</g>
		</g>
	</g>
	<path style="fill:#4F3F35;" d="M209.128,237.323c-1.359-3.947-3.772-7.628-6.568-10.7c-1.294-1.421-2.694-2.83-4.357-3.812
		c-1.793-1.059-3.822-1.734-5.3-3.259c-0.136-0.139-0.464,0.082-0.335,0.235c1.126,1.329,2.615,2.181,4.086,3.075
		c1.699,1.032,3.077,2.281,4.377,3.783c2.626,3.032,4.94,6.647,6.326,10.423c2.459,6.697,1.974,13.867-1.277,20.112
		c0.525-2.456,0.692-4.996,0.548-7.399c-0.34-5.651-2.434-10.965-5.71-15.551c-0.121-0.169-0.45,0.066-0.348,0.244
		c2.732,4.725,4.417,10.137,4.657,15.604c0.113,2.585-0.108,5.211-0.725,7.725c-0.635,2.591-1.723,4.961-2.747,7.409
		c-0.151,0.36,0.39,0.356,0.552,0.162c1.551-1.848,2.612-4.062,3.313-6.407c0.066-0.019,0.132-0.051,0.181-0.106
		C210.883,253.12,211.549,244.355,209.128,237.323z"/>
	<path style="opacity:0.72;fill:#FBC19F;" d="M250.323,174.012c1.608-3.88,3.165-7.799,4.315-11.843
		c0.985-3.464,1.973-7.451,1.125-11.046c-0.322-1.368-0.984-2.66-2.136-3.507c-0.899-0.661-1.959-0.999-3.051-1.154
		c-1.475,0.314-2.899,0.941-4.233,1.731c-4.124,3.432-8.144,7.388-10.839,12.044c-1.183,2.044-2.054,4.243-1.902,6.635
		c0.097,1.527,0.983,2.73,1.289,4.195c0.312,1.495-0.203,2.987-0.827,4.335c-0.879,1.897-2.167,3.57-3.311,5.319
		c-0.345,0.643-0.718,1.271-1.118,1.883c-0.248,0.467-0.481,0.942-0.676,1.437c-0.713,1.811-1.005,3.729-1.057,5.668
		c-0.058,2.153,0.16,4.333,0.778,6.401c0.529,1.77,1.404,3.635,2.95,4.738c1.703,1.215,3.785,1.067,5.679,0.407
		c2.279-0.794,3.99-2.58,5.205-4.611c0.659-1.102,1.196-2.256,1.656-3.442c-0.001-0.105,0.015-0.209,0.064-0.299
		c0.032-0.06,0.072-0.116,0.104-0.175c1.234-3.359,1.892-6.955,2.842-10.381C247.977,179.473,249.183,176.762,250.323,174.012z"/>
</g>
</svg>
